<svg width="2703" height="1812" viewBox="0 0 2703 1812" fill="none" xmlns="http://www.w3.org/2000/svg">
<path d="M2182.32 1636.13C1597.54 1841.26 1080.58 1843.09 696.483 1755.26C504.427 1711.35 345.614 1645.03 228.152 1570.53C110.645 1495.99 34.6943 1413.38 8.05826 1336.97C-5.15492 1299.07 2.33176 1264.83 25.8423 1232.68C49.4123 1200.45 89.0758 1170.35 140.121 1141.01C221.001 1094.52 330.021 1050.14 447.815 1002.2C478.712 989.621 510.213 976.799 541.968 963.629C694.698 900.286 853.215 828.916 978.141 738.163C1103.07 647.407 1194.61 537.12 1213.02 395.896C1227.29 286.362 1244.03 205.428 1267.92 146.398C1291.8 87.4144 1322.78 50.408 1365.52 28.5654C1408.33 6.68847 1463.13 -0.0823169 1534.86 1.85222C1602.78 3.68405 1685.68 13.3102 1787.68 25.154C1793.38 25.8165 1799.15 26.4859 1804.97 27.1613C1914.48 39.8568 2065.91 121.093 2213.27 242.476C2360.59 363.816 2503.61 525.083 2596.35 697.524C2689.11 869.985 2731.47 1053.42 2677.85 1219.25C2624.25 1385.02 2474.58 1533.61 2182.32 1636.13Z" stroke="#E5E5E5" stroke-opacity="0.3" stroke-width="3"/>
</svg>
