<svg width="351" height="230" viewBox="0 0 351 230" fill="none" xmlns="http://www.w3.org/2000/svg">
<ellipse rx="90.8324" ry="14.9954" transform="matrix(0.999997 -0.0026133 0.00333122 0.999994 90.9146 74.9643)" fill="#F2F0F0"/>
<path d="M110.262 5L178 47.6804L117.035 125L59 76.7526L110.262 5Z" fill="#E3E3E3"/>
<path d="M172.556 113.616C191.983 93.779 194.588 64.2768 178.375 47.7212C162.163 31.1656 133.272 33.8259 113.845 53.6632C94.4188 73.5006 91.8136 103.003 108.026 119.558C124.239 136.114 153.13 133.454 172.556 113.616Z" fill="#CDCBCB"/>
<path d="M169.124 110.298C185.792 93.2769 188.009 67.9438 174.074 53.7148C160.14 39.4858 135.332 41.7491 118.664 58.7701C101.995 75.791 99.7791 101.124 113.713 115.353C127.647 129.582 152.456 127.319 169.124 110.298Z" fill="#A5A5A5" fill-opacity="0.87"/>
<path d="M115.364 9.82524C112.23 3.94146 104.672 1.91693 101.231 0.96793C83.1658 -3.84033 67.4968 10.711 64.9775 12.9886C61.8436 15.8988 49.1855 27.9827 49.0012 47.7852C48.9397 56.5792 51.2747 75.9388 61.2906 79.4184C81.0766 86.3145 126.117 30.0073 115.364 9.82524Z" fill="#E3E3E3"/>
<path d="M116.451 118.57C116.82 116.821 133.677 123.756 152.748 119.195C158.715 117.758 163.821 115.446 177.356 112.322C180.801 111.51 184.369 110.76 189.044 111.072C195.504 111.51 199.257 113.697 203.809 115.446C210.761 118.133 217.036 118.508 229.647 119.195C245.027 120.07 247.98 117.883 256.101 121.069C261.945 123.381 261.33 124.88 268.405 127.942C275.787 131.128 280.094 131.128 290.552 132.94C303.41 135.19 309.808 136.314 316.39 139.188C327.095 143.937 333.862 150.684 338.537 155.433C346.166 163.243 349.98 167.116 350.841 172.927C352.256 182.986 343.951 191.733 336.077 199.793C326.172 209.915 313.437 222.973 293.013 227.909C259.054 236.156 221.219 217.85 209.346 210.415C206.701 208.79 200.303 204.479 190.89 202.917C183.262 201.668 179.632 203.167 168.743 204.167C161.545 204.854 153.486 204.604 137.368 204.167C112.76 203.479 116.02 202.042 108.454 202.917C94.55 204.542 86.9216 208.978 79.5392 204.167C78.4319 203.417 73.8794 200.48 74.0024 196.669C74.187 189.422 90.9819 188.609 93.6888 177.925C94.2424 175.801 93.4427 176.363 93.0736 165.43C92.8275 158.307 92.7045 154.746 93.0736 152.934C94.9192 143.624 104.209 135.002 113.99 132.94C122.911 131.003 129.616 135.127 130.601 132.94C131.646 130.691 125.618 124.63 120.142 121.069C117.681 119.507 116.328 119.07 116.451 118.57Z" fill="#0193D2"/>
</svg>
