<svg width="358" height="399" viewBox="0 0 358 399" fill="none" xmlns="http://www.w3.org/2000/svg">
<g clip-path="url(#clip0)">
<path d="M134.35 225.846C134.452 226.192 134.9 226.436 135.796 226.923C143.434 233.695 174.335 260.678 179.967 269.549C182.232 273.395 153.525 355.291 153.525 355.291L163.657 359.066C163.657 359.066 201.274 297.115 206.472 277.885C210.483 263.524 190.218 221.724 190.218 221.724" fill="#0193D2"/>
<path d="M135.045 235.803C148.079 237.965 177.544 225.853 184.693 223.36C184.693 223.36 185.038 223.257 243.767 208.502L310.779 273.723C310.779 273.723 319.498 265.119 318.052 264.041C316.607 262.964 275.368 197.263 253.848 182.934C214.391 156.226 151.944 179.986 151.944 179.986C150.665 180.741 127.955 195.37 123.702 210.179C122.271 215.496 122.67 220.647 122.67 220.647C123.042 223.172 123.645 229.015 127.74 232.696C130.734 235.197 133.906 235.763 135.045 235.803Z" fill="black"/>
<path d="M169.388 80.3478C172.041 93.1122 174.246 105.633 173.689 118.971C173.526 127.3 172.429 136.282 167.648 142.967C162.139 150.997 151.537 154.512 142.085 154.3C132.53 153.742 123.089 149.763 115.067 144.234C103.808 136.653 94.7988 126.523 88.0023 114.986C94.7568 117.502 101.166 120.121 107.92 122.638C118.602 127.002 130.32 131.06 140.82 127.198C149.005 124.398 155.065 116.958 158.195 108.504C161.325 100.049 161.769 90.1316 161.036 81.3153" fill="#0193D2"/>
<path d="M51.8209 123.441C50.0944 123.952 48.6107 124.015 46.9866 124.872C46.9866 124.872 44.3266 126.036 41.8337 129.033C38.7526 132.58 36.7495 144.841 38.3552 161.679C40.9014 163.937 43.8955 166.437 47.2348 168.836C52.9155 172.8 58.2888 175.725 62.9069 177.369C77.2848 180.263 87.8644 184.282 95.2716 187.734C103.92 191.572 106.466 193.829 108.564 195.842C114.617 202.331 114.632 208.725 118.295 218.556C120.625 223.888 124.363 231.438 131.721 239.798C138.3 220.16 144.879 200.521 151.356 180.537C130.727 156.534 114.463 138.391 105.352 127.915C104.904 127.671 98.7868 119.696 88.2072 115.678C84.3822 114.176 80.0715 113.57 76.0682 114.003C72.858 114.577 65.9518 116.622 71.7729 119.791C65.6977 120.837 58.4842 121.844 51.8209 123.441Z" fill="#0193D2"/>
<path d="M62.7355 116.897C71.0331 109.46 68.936 93.5536 58.0516 81.369C47.1671 69.1845 31.617 65.3359 23.3194 72.7728C15.0219 80.2098 17.1189 96.1161 28.0034 108.301C38.8878 120.485 54.4379 124.334 62.7355 116.897Z" fill="black"/>
<path d="M159.526 78.7514C158.528 77.9178 157.184 77.1864 156.186 76.3528C154.843 75.6214 153.845 74.7877 153.192 73.8518C152.642 73.262 152.783 72.4677 152.13 71.5318C151.515 69.4555 149.864 67.686 148.316 66.2625C148.214 65.9164 147.868 66.0187 147.766 65.6726C147.663 65.3266 147.906 64.8783 148.597 64.6738C148.942 64.5716 149.735 64.7131 150.183 64.9569C151.424 65.3422 152.319 65.8298 152.972 66.7657C154.073 67.9454 154.828 69.2274 155.826 70.061C157.051 64.0523 152.239 57.9494 153.12 52.043C153.017 51.6969 153.26 51.2486 153.605 51.1464C153.605 51.1464 153.951 51.0441 154.053 51.3902C155.051 52.2238 155.461 53.608 155.871 54.9922C156.383 56.7224 156.793 58.1066 157.305 59.8368C157.613 60.875 157.92 61.9131 158.713 62.0546C159.096 60.812 158.341 59.5301 157.931 58.1459C157.214 55.7236 156.842 53.199 156.815 50.5722C156.713 50.2261 156.956 49.7779 156.853 49.4318C157.096 48.9835 157.889 49.1251 158.337 49.3689C158.785 49.6127 158.99 50.3048 159.092 50.6508C160.117 54.1113 161.039 57.2257 161.718 60.7884C162.064 60.6861 162.409 60.5839 162.652 60.1356C162.895 59.6873 162.792 59.3412 162.69 58.9952C162.42 56.8167 161.806 54.7404 161.434 52.2158C161.229 51.5237 161.267 50.3834 161.407 49.589C161.407 49.589 161.304 49.243 161.65 49.1407C161.995 49.0385 162.34 48.9362 162.443 49.2823C163.338 49.7699 163.748 51.154 164.056 52.1922C164.53 55.0628 165.452 58.1772 165.927 61.0478C166.029 61.3939 166.132 61.7399 166.477 61.6377C166.477 61.6377 166.477 61.6377 166.374 61.2916C166.31 59.8052 166.143 57.9727 166.078 56.4863C165.668 55.1021 165.604 53.6157 166.435 52.6168C166.435 52.6168 166.678 52.1685 166.78 52.5146C167.125 52.4123 167.228 52.7584 167.33 53.1044C167.638 54.1426 168.393 55.4245 168.355 56.5649C168.522 58.3974 168.792 60.5759 169.304 62.3061C169.714 63.6903 170.021 64.7284 170.431 66.1126C171.968 71.3033 170.985 76.8637 169.9 82.078C169.658 82.5263 169.76 82.8723 169.517 83.3206C169.274 83.7689 168.929 83.8712 168.584 83.9734C166.857 84.4847 164.683 84.7521 162.892 83.7769C161.651 83.3916 161.548 83.0455 161.586 81.9051C160.831 80.6232 160.524 79.5851 159.526 78.7514Z" fill="black"/>
<path d="M71.9133 118.997C66.0922 115.828 72.9984 113.783 76.2086 113.208C80.2119 112.776 84.6251 113.727 88.4501 115.229C99.2346 119.94 106.042 127.71 106.145 128.056C115.154 138.186 131.418 156.33 152.494 180.576C153.492 181.41 154.042 182 154.145 182.346C154.145 182.346 153.454 182.55 153.007 182.306" fill="black"/>
<path d="M324.959 261.996C327.068 260.242 329.421 258.04 331.428 255.94C333.193 254.289 335.302 252.535 337.196 253.856C338.539 254.587 338.949 255.972 338.566 257.214C338.183 258.457 337.8 259.699 337.071 261.044C332.495 268.422 327.023 275.311 320.451 281.021C320.106 281.123 319.863 281.572 319.518 281.674C318.827 281.878 317.932 281.391 317.381 280.801C313.94 278.056 309.564 275.964 313.029 271.175C315.662 267.384 321.673 264.851 324.959 261.996Z" fill="#0193D2"/>
<path d="M168.685 362.093C171.026 363.659 173.713 365.121 176.297 366.238C178.433 367.111 180.877 369.022 180.353 371.059C179.97 372.302 178.794 373.403 177.31 373.466C175.929 373.875 174.688 373.489 173.447 373.104C164.966 371.099 156.971 368.197 149.602 363.604C149.154 363.36 149.051 363.014 148.604 362.77C148.053 362.18 148.539 361.284 148.679 360.489C150.417 356.211 150.914 351.547 156.325 353.332C160.598 355.078 165 359.797 168.685 362.093Z" fill="black"/>
<path d="M124.643 103.007C124.578 101.52 123.925 100.585 123.516 99.2004C123.106 97.8162 122.798 96.7781 122.734 95.2917C122.874 94.4973 123.014 93.703 123.5 92.8064C124.024 90.7694 124.445 88.3864 123.83 86.3101C123.728 85.9641 123.625 85.618 123.97 85.5158C124.213 85.0675 124.559 84.9653 125.006 85.2091C125.454 85.4529 125.557 85.7989 126.004 86.0427C126.657 86.9786 126.964 88.0167 126.927 89.1571C126.991 90.6435 126.71 92.2322 127.12 93.6164C131.583 89.6604 131.605 82.126 135.62 77.9261C135.965 77.8239 136.208 77.3756 136.656 77.6194L136.758 77.9654C136.823 79.4519 136.439 80.6945 136.056 81.9371C135.43 83.628 134.702 84.9729 134.076 86.6639C133.59 87.5604 133.45 88.3548 133.757 89.3929C134.588 88.3941 134.971 87.1514 135.354 85.9088C136.121 83.4235 137.437 81.5281 138.652 79.2867C138.894 78.8384 139.24 78.7361 139.585 78.6339C139.93 78.5316 140.481 79.1215 140.583 79.4675C140.686 79.8136 140.545 80.6079 140.302 81.0562C138.948 84.092 137.696 87.4738 136.341 90.5097C136.444 90.8557 137.134 90.6512 137.479 90.549C137.825 90.4467 138.068 89.9984 137.965 89.6524C138.937 87.8592 139.805 85.72 141.122 83.8246C141.608 82.928 141.748 82.1336 142.682 81.4808L143.027 81.3786C143.372 81.2763 143.475 81.6224 143.577 81.9684C143.885 83.0066 143.501 84.2492 143.016 85.1458C141.904 87.7333 140.447 90.4231 139.335 93.0106C139.092 93.4589 139.195 93.8049 139.54 93.7027L139.885 93.6004C140.959 92.1533 141.79 91.1545 142.416 89.4635C143.145 88.1186 143.63 87.2221 144.909 86.467L145.254 86.3648C145.254 86.3648 145.357 86.7108 145.459 87.0569C145.076 88.2995 144.693 89.5421 144.207 90.4387C143.236 92.2319 142.162 93.679 141.536 95.3699C141.153 96.6126 140.77 97.8552 140.386 99.0978C138.508 104.171 134.289 107.678 130.415 111.084C130.069 111.186 129.826 111.634 129.481 111.737C129.136 111.839 128.688 111.595 128.688 111.595C126.999 110.966 125.554 109.889 124.696 108.261C124.043 107.325 123.941 106.979 124.772 105.98C124.464 104.942 124.95 104.045 124.643 103.007Z" fill="#0193D2"/>
<path d="M94.209 185.414C98.2502 183.841 101.639 181.332 105.653 177.132C124.102 156.99 129.539 127.151 131.143 109.739C129.352 108.764 125.079 107.018 123.288 106.043C115.119 115.237 110.008 128.418 104.18 139.177C101.508 144.108 98.7992 150.18 93.927 152.752C92.6483 153.507 87.2904 156.975 81.1886 155.395C71.4667 153.004 71.6408 140.908 60.5868 134.019C52.9747 129.874 40.7332 127.853 35.1591 134.397C29.8279 140.492 31.7635 150.834 35.0916 157C37.5621 161.538 40.9014 163.936 42.795 165.258C64.865 180.177 79.911 190.401 94.209 185.414Z" fill="black"/>
<path d="M23.8908 72.2421C32.2273 64.8806 47.6032 68.6081 58.3652 80.8533C69.1272 93.0985 71.5639 108.938 63.2274 116.299" fill="#0193D2"/>
</g>
<defs>
<clipPath id="clip0">
<rect width="274.056" height="334.191" fill="white" transform="translate(0 77.8108) rotate(-16.4945)"/>
</clipPath>
</defs>
</svg>
