<svg width="290" height="190" viewBox="0 0 290 190" fill="none" xmlns="http://www.w3.org/2000/svg">
<path d="M288.5 83.9046C288.5 120.824 266.196 146.923 234.863 163.872C203.502 180.835 163.287 188.5 128.094 188.5C58.265 188.5 1.5 128.216 1.5 53.6507C1.5 35.0512 5.96306 22.994 13.4813 15.2188C21.0159 7.42673 31.8571 3.68518 45.1571 2.24423C58.4607 0.802892 74.0002 1.68453 90.7399 2.94504C93.2199 3.13179 95.7257 3.32679 98.253 3.52347C112.737 4.65061 127.93 5.83295 143.049 5.83295C178.462 5.83295 214.927 6.91498 242.526 17.2841C256.291 22.4554 267.757 29.9049 275.788 40.6033C283.809 51.289 288.5 65.3433 288.5 83.9046Z" stroke="#C4C4C4" stroke-opacity="0.2" stroke-width="3"/>
</svg>
