<svg width="238" height="207" viewBox="0 0 238 207" fill="none" xmlns="http://www.w3.org/2000/svg">
<path d="M238 91.4118C238 173.453 163.185 207 105.126 207C47.0663 207 0 140.492 0 58.451C0 -23.5903 59.3399 4.72064 117.399 4.72064C175.458 4.72064 238 9.37051 238 91.4118Z" fill="white"/>
<path d="M236.5 91.4118C236.5 131.904 218.067 160.365 192.46 178.753C166.799 197.179 133.902 205.5 105.126 205.5C76.7123 205.5 50.8421 189.228 32.015 162.625C13.1905 136.024 1.5 99.1981 1.5 58.451C1.5 38.0843 5.18944 24.8423 11.3915 16.3276C17.5512 7.87107 26.3545 3.85639 37.1409 2.30505C47.981 0.74597 60.6679 1.69755 74.4126 3.07151C76.4443 3.2746 78.4983 3.48682 80.5711 3.70098C92.4565 4.92896 104.958 6.22064 117.399 6.22064C146.473 6.22064 176.272 7.40601 198.802 18.6431C210.019 24.2371 219.411 32.3148 226.015 43.9935C232.627 55.6861 236.5 71.0886 236.5 91.4118Z" stroke="#C4C4C4" stroke-opacity="0.2" stroke-width="3"/>
</svg>
