<svg width="293" height="206" viewBox="0 0 293 206" fill="none" xmlns="http://www.w3.org/2000/svg">
<path d="M291.5 90.9702C291.5 131.114 268.898 159.44 237.26 177.805C205.581 196.193 164.962 204.5 129.419 204.5C58.9526 204.5 1.5 139.179 1.5 58.1686C1.5 37.9594 6.02203 24.8345 13.6457 16.374C21.2677 7.91511 32.2167 3.86628 45.6342 2.30633C59.0658 0.744732 74.7579 1.69972 91.6716 3.06645C94.1768 3.26888 96.7082 3.48028 99.2615 3.69352C113.895 4.91557 129.249 6.19783 144.529 6.19783C180.309 6.19783 217.136 7.3715 245.007 18.6084C258.903 24.2106 270.496 32.2866 278.624 43.906C286.748 55.5205 291.5 70.8014 291.5 90.9702Z" stroke="#C4C4C4" stroke-opacity="0.2" stroke-width="3"/>
</svg>
