<svg width="194" height="175" viewBox="0 0 194 175" fill="none" xmlns="http://www.w3.org/2000/svg">
<path opacity="0.06" d="M56.0592 48.4081C69.3015 39.1457 87.8407 50.3929 97.7725 38.4841C102.407 33.1913 103.732 25.9138 101.745 19.9594C97.7725 6.06586 77.2469 1.43468 65.9909 0.111482C35.5336 -1.87331 15.6701 23.2674 13.6837 25.9138C4.41411 37.8225 2.42776 50.3928 1.10353 57.6704C-3.53129 86.7807 7.72469 111.26 11.0353 117.876C34.2093 161.541 81.2196 171.465 85.8544 172.127C132.865 181.389 184.51 156.248 192.455 124.492C194.441 115.891 195.104 98.6894 185.834 91.4119C179.213 86.1191 169.943 87.4423 163.322 90.0887C146.769 96.7046 150.08 115.891 137.499 125.815C114.987 142.355 56.7213 125.815 46.1274 90.7503C41.4926 76.8567 44.1411 56.3472 56.0592 48.4081Z" fill="black"/>
</svg>
