<svg width="262" height="727" viewBox="0 0 262 727" fill="none" xmlns="http://www.w3.org/2000/svg">
<g style="mix-blend-mode:luminosity">
<path fill-rule="evenodd" clip-rule="evenodd" d="M130.929 727C203.082 727 261.858 720.164 261.858 711.727C261.858 703.291 203.082 696.454 130.929 696.454C58.7757 696.454 0 703.291 0 711.727C0 720.164 58.7757 727 130.929 727Z" fill="#85A5BA"/>
<path d="M262 122.039H43.1211V682.199H262V122.039Z" fill="#E7BE7C"/>
<path d="M238.945 146.622H66.0332V497.468H238.945V146.622Z" fill="#D0A96D"/>
<path d="M238.945 522.777H66.0332V590.27H238.945V522.777Z" fill="#E7BE7C" stroke="#D0A96D" stroke-width="3.8401" stroke-miterlimit="22.9256"/>
<path d="M238.945 590.27H66.0332V657.762H238.945V590.27Z" fill="#E7BE7C" stroke="#D0A96D" stroke-width="3.8401" stroke-miterlimit="22.9256"/>
<path fill-rule="evenodd" clip-rule="evenodd" d="M43.1211 682.199H63.6143L59.3449 712.309H47.3905L43.1211 682.199Z" fill="white"/>
<path fill-rule="evenodd" clip-rule="evenodd" d="M241.364 682.199H261.857L257.588 712.309H245.634L241.364 682.199Z" fill="white"/>
<path fill-rule="evenodd" clip-rule="evenodd" d="M152.418 547.796C168.073 547.796 180.739 555.505 180.739 565.105H124.24C124.24 555.65 136.906 547.796 152.418 547.796Z" fill="white"/>
<path fill-rule="evenodd" clip-rule="evenodd" d="M152.418 615.434C168.073 615.434 180.739 623.143 180.739 632.743H124.24C124.24 623.143 136.906 615.434 152.418 615.434Z" fill="white"/>
<path fill-rule="evenodd" clip-rule="evenodd" d="M142.312 25.6003C179.741 69.3832 172.056 105.893 165.225 119.857C169.494 118.694 176.183 91.3474 169.21 68.365C165.225 55.1283 149.286 28.0731 142.312 25.6003Z" fill="#C4D98E"/>
<path fill-rule="evenodd" clip-rule="evenodd" d="M138.185 23.564C138.612 18.1821 135.908 8.29096 115.699 6.69092C123.384 25.8914 133.346 25.6004 138.185 23.564Z" fill="#BACF83"/>
<path fill-rule="evenodd" clip-rule="evenodd" d="M150.424 28.5098C154.978 25.8916 161.525 18.1823 151.705 0C140.32 17.0186 146.155 25.4552 150.424 28.5098Z" fill="#BACF83"/>
<path fill-rule="evenodd" clip-rule="evenodd" d="M146.154 39.5646C144.731 34.3282 138.896 26.0372 119.399 31.5645C132.919 46.9828 142.17 43.201 146.154 39.5646Z" fill="#C4D98E"/>
<path fill-rule="evenodd" clip-rule="evenodd" d="M163.231 47.4196C168.497 46.9832 177.463 42.474 175.613 21.9644C158.393 32.8737 160.385 42.9103 163.231 47.4196Z" fill="#C4D98E"/>
<path fill-rule="evenodd" clip-rule="evenodd" d="M159.104 58.765C157.965 53.5285 152.7 44.801 132.918 49.1647C145.442 65.3106 154.977 62.1105 159.104 58.765Z" fill="#BACF83"/>
<path fill-rule="evenodd" clip-rule="evenodd" d="M174.048 68.2199C179.313 67.7835 188.279 63.2743 186.429 42.7649C169.209 53.6742 171.202 63.7107 174.048 68.2199Z" fill="#BACF83"/>
<path fill-rule="evenodd" clip-rule="evenodd" d="M165.224 82.911C165.509 77.5291 162.663 67.7835 142.454 66.4744C150.424 85.5292 160.386 84.9474 165.224 82.911Z" fill="#C4D98E"/>
<path fill-rule="evenodd" clip-rule="evenodd" d="M176.324 94.5474C181.447 95.4201 191.409 93.3838 194.398 72.8745C175.185 79.2746 174.759 89.4565 176.324 94.5474Z" fill="#BACF83"/>
<path fill-rule="evenodd" clip-rule="evenodd" d="M166.932 104.439C167.644 99.057 165.224 89.1657 145.158 86.6929C151.989 106.184 161.951 106.184 166.932 104.439Z" fill="#BACF83" stroke="#BACF83" stroke-width="0.216" stroke-miterlimit="22.9256"/>
<path fill-rule="evenodd" clip-rule="evenodd" d="M171.201 118.985C176.182 120.73 186.144 120.585 192.833 101.093C172.909 103.711 170.632 113.748 171.201 118.985Z" fill="#C4D98E"/>
<path fill-rule="evenodd" clip-rule="evenodd" d="M169.922 35.6372C180.596 77.6745 163.518 99.3477 154.41 106.33C157.683 107.057 171.061 91.0566 173.907 73.3108C175.473 63.2742 173.765 39.71 169.922 35.6372Z" fill="#E7F6BE"/>
<path fill-rule="evenodd" clip-rule="evenodd" d="M167.929 32.8735C169.922 29.3826 171.345 21.9643 158.537 13.9641C157.113 29.3826 163.944 32.5826 167.929 32.8735Z" fill="#D3E69F"/>
<path fill-rule="evenodd" clip-rule="evenodd" d="M174.475 40.4372C178.46 40.2917 185.291 37.3826 184.58 21.9641C171.345 29.237 172.483 36.9462 174.475 40.4372Z" fill="#E7F6BE"/>
<path fill-rule="evenodd" clip-rule="evenodd" d="M167.787 46.4009C168.499 42.4735 167.36 34.9096 152.56 31.855C156.544 46.6918 164.087 47.4191 167.787 46.4009Z" fill="#D3E69F"/>
<path fill-rule="evenodd" clip-rule="evenodd" d="M176.61 57.4559C180.31 58.9104 187.71 59.0559 193.118 44.6558C178.175 45.9649 176.325 53.3831 176.61 57.4559Z" fill="#E7F6BE"/>
<path fill-rule="evenodd" clip-rule="evenodd" d="M170.207 63.5648C171.203 59.6374 170.491 52.0736 155.833 48.1462C158.964 63.2739 166.364 64.2921 170.207 63.5648Z" fill="#E7F6BE"/>
<path fill-rule="evenodd" clip-rule="evenodd" d="M177.038 75.0564C180.738 76.511 188.138 76.6565 193.546 62.2561C178.603 63.5652 176.753 70.9836 177.038 75.0564Z" fill="#D3E69F"/>
<path fill-rule="evenodd" clip-rule="evenodd" d="M166.508 81.7472C168.5 78.2562 169.781 70.6925 156.688 62.9834C155.692 78.4017 162.523 81.4562 166.508 81.7472Z" fill="#D3E69F"/>
<path fill-rule="evenodd" clip-rule="evenodd" d="M170.064 93.3837C173.195 95.7111 180.453 97.7475 189.277 85.0926C174.192 82.6198 170.634 89.3109 170.064 93.3837Z" fill="#E7F6BE"/>
<path fill-rule="evenodd" clip-rule="evenodd" d="M160.529 96.7293C162.664 93.3838 164.372 85.9655 151.848 77.3835C149.998 92.6565 156.687 96.1475 160.529 96.7293Z" fill="#D3E69F"/>
<path fill-rule="evenodd" clip-rule="evenodd" d="M158.679 107.93C161.383 110.839 168.071 114.184 179.03 103.42C164.656 98.1839 159.96 104.148 158.679 107.93Z" fill="#E7F6BE"/>
<path fill-rule="evenodd" clip-rule="evenodd" d="M198.101 61.0923C204.363 82.9111 198.67 107.203 183.585 122.039H122.817C107.732 107.203 101.897 82.9111 108.301 61.0923H198.101Z" fill="white"/>
<path fill-rule="evenodd" clip-rule="evenodd" d="M106.877 61.6742H198.1C200.093 61.6742 201.658 60.0741 201.658 58.0377C201.658 56.0012 200.093 54.4011 198.1 54.4011H106.877C104.885 54.4011 103.319 56.0012 103.319 58.0377C103.319 60.0741 104.885 61.6742 106.877 61.6742Z" fill="#F6E1BE"/>
<path fill-rule="evenodd" clip-rule="evenodd" d="M75.5691 154.913C82.4001 82.62 121.252 58.3284 139.61 52.6556C134.914 49.6009 104.743 67.056 90.3697 93.2385C82.1155 108.221 71.7266 146.331 75.5691 154.913Z" fill="#C4D98E"/>
<path fill-rule="evenodd" clip-rule="evenodd" d="M77.2773 160.44C72.154 164.658 65.7498 175.568 81.5467 195.787C92.0779 172.222 83.2544 163.204 77.2773 160.44Z" fill="#BACF83"/>
<path fill-rule="evenodd" clip-rule="evenodd" d="M71.0146 144.876C64.7528 142.84 52.2292 143.422 44.6865 168.15C69.7338 164.077 72.1531 151.567 71.0146 144.876Z" fill="#BACF83"/>
<path fill-rule="evenodd" clip-rule="evenodd" d="M84.8186 139.349C81.4031 145.022 78.9837 157.677 100.615 171.059C102.75 145.312 91.365 139.93 84.8186 139.349Z" fill="#C4D98E"/>
<path fill-rule="evenodd" clip-rule="evenodd" d="M76.9919 116.657C72.0109 112.294 60.3412 107.639 43.6904 127.13C68.1684 133.822 75.4265 123.203 76.9919 116.657Z" fill="#C4D98E"/>
<path fill-rule="evenodd" clip-rule="evenodd" d="M90.6546 110.839C86.9545 116.366 83.8236 128.73 104.601 143.421C108.159 117.821 97.0588 111.857 90.6546 110.839Z" fill="#BACF83"/>
<path fill-rule="evenodd" clip-rule="evenodd" d="M86.2419 88.7294C81.2609 84.3657 69.5912 79.7111 52.9404 99.2022C77.4184 105.748 84.5341 95.2749 86.2419 88.7294Z" fill="#BACF83"/>
<path fill-rule="evenodd" clip-rule="evenodd" d="M106.736 84.5112C101.755 88.875 95.4932 99.9298 111.717 119.712C121.821 96.0024 112.713 87.1295 106.736 84.5112Z" fill="#C4D98E"/>
<path fill-rule="evenodd" clip-rule="evenodd" d="M107.59 64.1468C103.89 58.6193 93.6431 51.2009 72.8652 65.8923C95.0662 78.4018 104.459 69.9652 107.59 64.1468Z" fill="#BACF83"/>
<path fill-rule="evenodd" clip-rule="evenodd" d="M124.382 64.2927C119.116 68.2201 112.143 78.9839 127.228 99.7843C138.755 76.802 130.217 67.3473 124.382 64.2927Z" fill="#BACF83" stroke="#BACF83" stroke-width="0.216" stroke-miterlimit="22.9256"/>
<path fill-rule="evenodd" clip-rule="evenodd" d="M133.775 47.8555C131.071 41.7463 122.39 32.5825 99.335 43.0555C118.69 59.4921 129.506 52.9465 133.775 47.8555Z" fill="#C4D98E"/>
<path fill-rule="evenodd" clip-rule="evenodd" d="M46.8213 40.5827C101.185 23.7093 130.644 45.8192 140.322 57.8925C141.175 53.3832 119.401 35.9279 96.0619 33.0187C82.6844 31.4187 51.9446 35.2006 46.8213 40.5827Z" fill="#C4D98E"/>
<path fill-rule="evenodd" clip-rule="evenodd" d="M43.4053 43.4917C38.8512 40.8735 28.8893 39.4189 19.2119 57.4556C39.2782 58.3284 43.1206 48.8736 43.4053 43.4917Z" fill="#BACF83"/>
<path fill-rule="evenodd" clip-rule="evenodd" d="M52.7975 34.1826C52.3706 28.8007 48.1012 19.4915 27.8926 21.237C38.4238 38.9827 48.2435 36.9463 52.7975 34.1826Z" fill="#BACF83"/>
<path fill-rule="evenodd" clip-rule="evenodd" d="M60.9088 42.9101C55.7855 42.0373 45.8236 44.0737 42.835 64.5831C62.0474 58.183 62.4743 48.001 60.9088 42.9101Z" fill="#C4D98E"/>
<path fill-rule="evenodd" clip-rule="evenodd" d="M74.9995 30.1095C76.7072 25.0185 76.4226 14.8364 57.3525 8.14526C59.9142 28.655 69.7339 30.8368 74.9995 30.1095Z" fill="#C4D98E"/>
<path fill-rule="evenodd" clip-rule="evenodd" d="M83.2541 38.5459C78.1308 37.3822 68.1688 38.8368 63.8994 59.0559C83.5387 53.9648 84.6772 43.7825 83.2541 38.5459Z" fill="#BACF83"/>
<path fill-rule="evenodd" clip-rule="evenodd" d="M97.9126 28.5097C99.6203 23.4187 99.3357 13.2367 80.2656 6.54565C82.9696 27.0552 92.7893 29.237 97.9126 28.5097Z" fill="#BACF83"/>
<path fill-rule="evenodd" clip-rule="evenodd" d="M107.304 42.7644C102.608 40.2916 92.6457 38.9825 83.2529 57.1648C103.604 57.6012 107.304 48.1464 107.304 42.7644Z" fill="#C4D98E"/>
<path fill-rule="evenodd" clip-rule="evenodd" d="M122.389 37.2373C125.235 32.7281 127.512 22.6915 110.577 11.4912C108.157 32.0008 117.123 36.6555 122.389 37.2373Z" fill="#BACF83"/>
<path fill-rule="evenodd" clip-rule="evenodd" d="M127.37 50.0375C122.816 47.2738 112.996 45.2374 102.607 62.9832C122.674 64.7287 126.943 55.4194 127.37 50.0375Z" fill="#BACF83" stroke="#BACF83" stroke-width="0.216" stroke-miterlimit="22.9256"/>
<path fill-rule="evenodd" clip-rule="evenodd" d="M142.029 52.0739C145.729 48.1465 149.714 38.8372 135.056 24.5823C129.078 44.2191 137.048 50.4738 142.029 52.0739Z" fill="#C4D98E"/>
<path fill-rule="evenodd" clip-rule="evenodd" d="M36.5755 126.985C73.7195 57.3104 123.102 50.0375 143.88 52.2193C140.465 47.1283 102.894 51.3466 77.4196 71.4198C62.7613 82.7655 36.2909 116.657 36.5755 126.985Z" fill="#E7F6BE"/>
<path fill-rule="evenodd" clip-rule="evenodd" d="M35.8633 133.24C28.8899 135.276 17.7894 143.422 25.3321 170.622C45.8253 151.567 40.702 138.622 35.8633 133.24Z" fill="#D3E69F"/>
<path fill-rule="evenodd" clip-rule="evenodd" d="M36.2901 114.767C30.8821 109.967 17.9316 105.167 0 126.549C26.755 133.531 34.5823 121.894 36.2901 114.767Z" fill="#E7F6BE"/>
<path fill-rule="evenodd" clip-rule="evenodd" d="M52.3716 115.349C46.5367 119.567 38.8518 131.204 54.9332 154.186C67.8838 129.167 58.7757 118.694 52.3716 115.349Z" fill="#D3E69F"/>
<path fill-rule="evenodd" clip-rule="evenodd" d="M54.0791 89.166C50.9482 82.6204 41.1286 72.8747 16.2236 85.0932C38.14 102.403 49.6674 94.9843 54.0791 89.166Z" fill="#E7F6BE"/>
<path fill-rule="evenodd" clip-rule="evenodd" d="M70.1611 89.166C64.0416 93.0934 55.7874 104.148 70.4458 128.003C84.9618 104.003 76.423 92.9479 70.1611 89.166Z" fill="#E7F6BE"/>
<path fill-rule="evenodd" clip-rule="evenodd" d="M74.9991 65.0199C71.8682 58.4742 62.0485 48.7283 37.1436 60.947C59.0599 78.2568 70.7297 70.8383 74.9991 65.0199Z" fill="#D3E69F"/>
<path fill-rule="evenodd" clip-rule="evenodd" d="M97.4842 69.6746C90.6532 71.8564 79.695 80.293 87.6646 107.203C107.873 87.8568 102.465 75.0565 97.4842 69.6746Z" fill="#D3E69F"/>
<path fill-rule="evenodd" clip-rule="evenodd" d="M107.021 49.6012C105.597 42.4739 98.3395 30.5465 71.2998 36.2193C88.2352 58.474 101.328 54.1104 107.021 49.6012Z" fill="#E7F6BE"/>
<path fill-rule="evenodd" clip-rule="evenodd" d="M123.813 57.3105C116.84 59.056 105.455 66.7653 111.859 94.2569C133.064 76.0746 128.367 62.8379 123.813 57.3105Z" fill="#D3E69F"/>
<path fill-rule="evenodd" clip-rule="evenodd" d="M140.038 44.801C139.896 37.5282 135.057 24.4371 107.306 24.8734C120.114 49.892 133.634 48.1465 140.038 44.801Z" fill="#E7F6BE"/>
<path fill-rule="evenodd" clip-rule="evenodd" d="M76.2806 479.139H147.011V494.412H76.2806C72.1535 494.412 68.8803 490.921 68.8803 486.848C68.738 482.63 72.1535 479.139 76.2806 479.139Z" fill="white"/>
<path fill-rule="evenodd" clip-rule="evenodd" d="M75.7109 476.085H150.995V479.14H76.2802C72.1531 479.14 68.8799 482.631 68.8799 486.703C68.8799 490.922 72.2954 494.267 76.2802 494.267H151.137V497.322H75.7109C69.8761 497.322 65.1797 492.522 65.1797 486.558C65.322 480.885 70.0184 476.085 75.7109 476.085Z" fill="#BC4A78"/>
<path fill-rule="evenodd" clip-rule="evenodd" d="M94.923 465.903H166.934V474.339H94.923C92.646 474.339 90.7959 472.448 90.7959 470.121C90.9382 467.794 92.646 465.903 94.923 465.903Z" fill="white"/>
<path fill-rule="evenodd" clip-rule="evenodd" d="M94.7812 464.157H169.354V465.903H94.9235C92.6464 465.903 90.7964 467.794 90.7964 470.121C90.7964 472.448 92.6464 474.339 94.9235 474.339H169.354V476.085H94.7812C91.6503 476.085 88.9463 473.467 88.9463 470.121C88.9463 466.921 91.5079 464.157 94.7812 464.157Z" fill="#D3E69F"/>
<path fill-rule="evenodd" clip-rule="evenodd" d="M84.677 450.339H137.76V461.83H84.677C81.5461 461.83 79.1268 459.212 79.1268 456.157C78.9844 452.957 81.5461 450.339 84.677 450.339Z" fill="white"/>
<path fill-rule="evenodd" clip-rule="evenodd" d="M84.2501 448.011H140.891V450.339H84.6771C81.5462 450.339 79.1268 452.957 79.1268 456.012C79.1268 459.212 81.6885 461.684 84.6771 461.684H140.891V464.012H84.2501C79.8384 464.012 76.4229 460.375 76.4229 456.012C76.4229 451.648 79.9807 448.011 84.2501 448.011Z" fill="#99E0FD"/>
<path fill-rule="evenodd" clip-rule="evenodd" d="M100.9 467.939H107.447V472.594L104.174 470.703L100.9 472.594V467.939Z" fill="#99E0FD"/>
<path d="M105.893 303.108L98.0674 305.792L120.431 373.919L128.257 371.235L105.893 303.108Z" fill="white"/>
<path fill-rule="evenodd" clip-rule="evenodd" d="M103.605 309.244C104.744 308.808 105.882 309.535 106.309 310.553C106.736 311.717 106.025 312.881 105.028 313.317C103.89 313.754 102.751 313.026 102.324 312.008C101.897 310.844 102.467 309.535 103.605 309.244Z" fill="#F6E1BE" stroke="#F6E1BE" stroke-width="0.216" stroke-miterlimit="22.9256"/>
<path d="M108.547 317.233L104.499 318.621L121.43 370.2L125.478 368.811L108.547 317.233Z" fill="#F6E1BE"/>
<path d="M120.091 319.39L112.266 322.073L129.287 373.927L137.113 371.243L120.091 319.39Z" fill="#BC4A78"/>
<path d="M117.693 325.244L131.64 367.863" stroke="#C9638B" stroke-width="2.4001" stroke-miterlimit="22.9256"/>
<path d="M122.977 312.442L118.39 314.015L138.037 373.868L142.624 372.294L122.977 312.442Z" fill="#C1D882"/>
<path d="M124.098 316.081L119.544 317.535" stroke="#D3E69F" stroke-width="2.4001" stroke-miterlimit="22.9256"/>
<path d="M125.093 318.844L120.539 320.299" stroke="#D3E69F" stroke-width="2.4001" stroke-miterlimit="22.9256"/>
<path d="M141.744 369.609L137.19 371.209" stroke="#D3E69F" stroke-width="2.4001" stroke-miterlimit="22.9256"/>
<path fill-rule="evenodd" clip-rule="evenodd" d="M136.479 329.026L149.714 369.755L143.737 371.791L130.502 331.063C129.933 329.463 130.786 327.572 132.494 326.99C134.202 326.554 135.91 327.426 136.479 329.026Z" fill="white"/>
<path fill-rule="evenodd" clip-rule="evenodd" d="M137.617 328.445L151.422 371.064L150.141 371.5L136.337 329.172C135.767 327.572 134.06 326.554 132.352 327.136C130.786 327.718 129.79 329.463 130.359 331.209L144.164 373.536L142.883 373.973L129.079 331.354C128.367 329.027 129.506 326.408 131.925 325.681C134.344 324.808 136.906 326.118 137.617 328.445Z" fill="#9DBFD2"/>
<path d="M236.099 257.752H68.7383V270.407H236.099V257.752Z" fill="#E7BE7C"/>
<path d="M236.099 373.828H68.7373V386.482H236.099V373.828Z" fill="#E7BE7C"/>
<path d="M214.892 352.009H168.498V373.828H214.892V352.009Z" fill="white"/>
<path d="M218.167 343.572H165.227V352.009H218.167V343.572Z" fill="#D3E69F"/>
<path fill-rule="evenodd" clip-rule="evenodd" d="M183.015 353.9H200.378V355.791C200.378 356.809 199.524 357.682 198.528 357.682H184.723C183.727 357.682 182.873 356.809 182.873 355.791V353.9H183.015Z" fill="#D3E69F"/>
<path fill-rule="evenodd" clip-rule="evenodd" d="M145.873 247.57H90.3701V256.006H145.873C148.15 256.006 150 254.115 150 251.788C150 249.461 148.15 247.57 145.873 247.57Z" fill="white"/>
<path fill-rule="evenodd" clip-rule="evenodd" d="M146.156 245.824H88.0918V247.57H146.014C148.291 247.57 150.141 249.461 150.141 251.788C150.141 254.115 148.291 256.006 146.014 256.006H88.0918V257.752H146.156C149.287 257.752 151.991 255.133 151.991 251.788C151.991 248.588 149.287 245.824 146.156 245.824Z" fill="#D3E69F"/>
<path fill-rule="evenodd" clip-rule="evenodd" d="M80.8348 233.896H133.206V243.788H80.8348C78.1308 243.788 75.9961 241.606 75.9961 238.842C75.9961 236.078 78.1308 233.896 80.8348 233.896Z" fill="white"/>
<path fill-rule="evenodd" clip-rule="evenodd" d="M80.5498 231.86H135.91V233.897H80.8345C78.1305 233.897 75.9958 236.079 75.9958 238.842C75.9958 241.606 78.1305 243.788 80.8345 243.788H135.91V245.824H80.5498C76.8497 245.824 73.7188 242.624 73.7188 238.842C73.7187 235.06 76.7073 231.86 80.5498 231.86Z" fill="#BC4A78"/>
<path fill-rule="evenodd" clip-rule="evenodd" d="M144.876 221.678H89.374V230.115H144.876C147.153 230.115 149.004 228.224 149.004 225.896C148.861 223.569 147.011 221.678 144.876 221.678Z" fill="white"/>
<path fill-rule="evenodd" clip-rule="evenodd" d="M145.018 219.933H86.9541V221.678H144.876C147.153 221.678 149.003 223.569 149.003 225.897C149.003 228.224 147.153 230.115 144.876 230.115H86.9541V231.86H145.018C148.149 231.86 150.853 229.242 150.853 225.897C150.853 222.697 148.291 219.933 145.018 219.933Z" fill="#99E0FD"/>
<path fill-rule="evenodd" clip-rule="evenodd" d="M130.217 218.624H78.9844V212.369H130.217C131.925 212.369 133.348 213.823 133.348 215.569C133.348 217.314 131.925 218.624 130.217 218.624Z" fill="white"/>
<path fill-rule="evenodd" clip-rule="evenodd" d="M130.358 219.933H77.2754V218.624H130.216C131.924 218.624 133.347 217.169 133.347 215.424C133.347 213.678 131.924 212.223 130.216 212.223H77.2754V210.914H130.501C132.92 210.914 134.913 212.951 134.913 215.424C134.77 217.896 132.778 219.933 130.358 219.933Z" fill="#F2CF95"/>
<path fill-rule="evenodd" clip-rule="evenodd" d="M133.206 209.314H85.5312V201.023H133.064C135.341 201.023 137.191 202.914 137.191 205.241C137.191 207.423 135.341 209.314 133.206 209.314Z" fill="white"/>
<path fill-rule="evenodd" clip-rule="evenodd" d="M133.349 211.06H83.2549V209.314H133.065C135.342 209.314 137.192 207.423 137.192 205.096C137.192 202.768 135.342 200.877 133.065 200.877H83.2549V199.277H133.349C136.48 199.277 139.042 201.896 139.042 205.096C139.184 208.441 136.623 211.06 133.349 211.06Z" fill="#D3E69F"/>
<path fill-rule="evenodd" clip-rule="evenodd" d="M139.611 222.842H133.064V229.242L136.338 226.769L139.611 229.242V222.842Z" fill="#99E0FD"/>
<path d="M238.947 206.26H219.592V257.752H238.947V206.26Z" fill="white"/>
<path d="M235.815 211.496H222.722V220.369H235.815V211.496Z" fill="#99E0FD"/>
<path d="M219.591 206.26H200.236V257.752H219.591V206.26Z" fill="#99E0FD"/>
<path d="M216.46 211.496H203.367V220.369H216.46V211.496Z" fill="white"/>
</g>
</svg>
