<svg width="775" height="779" viewBox="0 0 775 779" fill="none" xmlns="http://www.w3.org/2000/svg">
<path d="M378.745 738.301C378.745 752.344 295.27 769 215.928 769C136.586 769 0 765.701 0 751.659C0 737.616 228.442 711 307.785 711C387.127 711 378.745 724.258 378.745 738.301Z" fill="#D7D7D7" fill-opacity="0.7"/>
<g clip-path="url(#clip0)">
<path d="M156.539 74.0435L605.528 719.721H583.519L143.334 74.0435H156.539Z" fill="#FFF10D"/>
<path d="M209.362 691.073C200.558 690.192 188.893 689.31 185.151 695.481C181.41 701.43 186.472 711.127 189.553 715.314C209.802 743.3 289.475 728.756 290.796 715.314C291.896 703.193 230.491 693.497 209.362 691.073Z" fill="black"/>
<path d="M223.668 337.383L214.864 696.582L179.649 703.193C140.032 566.786 109.219 420.462 91.6121 264.662C90.0714 250.558 88.5308 236.675 87.2102 222.792L223.668 337.383Z" fill="#FFF10D"/>
<path d="M212.663 328.128L203.859 696.362L168.645 703.193C129.028 563.48 98.2148 413.41 80.6074 253.643C79.0668 239.319 77.5261 224.995 76.2056 210.672L212.663 328.128Z" fill="black"/>
<path d="M384.335 165.496L223.668 337.383L63 249.236C70.9233 178.718 90.2915 156.681 107.019 150.07C116.042 146.545 129.028 145.663 144.434 134.645C159.401 124.067 166.003 111.506 170.845 103.793C201.879 54.4308 262.844 34.8181 267.686 33.2755C305.102 21.8164 336.355 27.5459 342.518 28.8681C360.785 32.6144 374.871 39.0051 384.335 44.2939V165.496Z" fill="#FFF10D"/>
<path d="M487.734 115.732C526.174 91.2003 543.565 49.6813 526.578 22.9963C509.59 -3.68864 464.658 -5.43451 426.218 19.0968C387.778 43.6281 370.387 85.1471 387.374 111.832C404.362 138.517 449.294 140.263 487.734 115.732Z" fill="black"/>
<path d="M355.723 163.292L212.663 328.568L223.668 337.383L368.929 180.922L355.723 163.292Z" fill="black"/>
<path d="M202.539 703.634C196.816 696.803 189.113 688.208 182.07 689.971C175.467 691.734 172.166 702.092 171.506 707.16C166.444 741.317 233.572 786.713 243.916 777.898C253.16 769.965 215.964 720.162 202.539 703.634Z" fill="black"/>
<path d="M400.843 415.614C404.144 413.41 419.991 427.734 427.254 446.465C431.876 458.145 430.115 464.315 429.455 466.298C427.474 472.248 422.192 479.741 416.249 479.52C408.546 479.3 401.723 466.078 400.843 455.28C399.962 446.024 403.924 443.38 403.043 431.039C402.383 420.682 399.302 416.715 400.843 415.614Z" fill="black"/>
<path d="M704.57 719.721H499.884L508.688 746.165H724.379L704.57 719.721Z" fill="black"/>
<path d="M775 737.35C775.88 731.401 761.354 725.01 759.594 724.128C737.804 714.432 716.015 723.467 697.968 728.536C670.676 736.249 650.207 735.147 609.93 732.943C544.343 729.417 511.769 705.177 499.884 719.721C493.281 727.875 495.922 744.623 504.286 754.98C523.434 778.78 564.591 759.167 667.155 750.573C729.441 745.284 773.679 747.487 775 737.35Z" fill="#FFF10D"/>
<path d="M375.312 259.593C376.192 220.368 380.374 189.296 384.115 168.361C391.158 127.813 399.082 107.319 385.216 91.0119C374.871 78.6713 355.723 72.9417 340.097 75.5861C311.044 80.2139 297.619 111.506 292.557 123.186C281.112 149.85 276.93 187.092 314.346 279.867C331.293 321.296 357.264 376.829 397.761 438.973L427.253 426.852C410.086 370.879 392.699 315.346 375.312 259.593Z" fill="black"/>
<path d="M533.778 45.3957C533.778 36.8014 531.798 28.4274 527.176 21.3757C509.788 -5.5092 464.009 -7.27215 424.612 17.409C385.216 42.0902 367.608 83.9601 384.996 110.845C387.197 114.15 389.838 117.236 392.699 119.66" fill="#FFF10D"/>
</g>
<defs>
<clipPath id="clip0">
<rect width="712" height="779" fill="white" transform="translate(63)"/>
</clipPath>
</defs>
</svg>
