<svg width="130" height="134" viewBox="0 0 130 134" fill="none" xmlns="http://www.w3.org/2000/svg">
<path d="M124 47.4064C124 82.5282 99.7603 111 69.8592 111C39.958 111 0 69.8095 0 34.6877C0 -0.434078 39.958 0.000253012 69.8592 0.000253012C99.7603 0.000253012 124 12.2846 124 47.4064Z" fill="#C4C4C4" fill-opacity="0.34"/>
<ellipse cx="111" cy="111.5" rx="6" ry="5.5" fill="#EBEBEB"/>
<ellipse cx="124" cy="128.5" rx="6" ry="5.5" fill="#EBEBEB"/>
<path d="M31 37.5693H31.6973L33.2695 41.7393C33.748 43.0199 34.0511 43.8835 34.1787 44.3301H34.2197C34.4111 43.7422 34.7233 42.8649 35.1562 41.6982L36.7285 37.5693H37.4258L34.0967 46.2031C33.8278 46.9049 33.6022 47.3789 33.4199 47.625C33.2376 47.8711 33.0234 48.0557 32.7773 48.1787C32.5358 48.3018 32.2419 48.3633 31.8955 48.3633C31.6357 48.3633 31.3464 48.3154 31.0273 48.2197V47.6318C31.2917 47.7048 31.5765 47.7412 31.8818 47.7412C32.1143 47.7412 32.3193 47.6865 32.4971 47.5771C32.6748 47.4678 32.8343 47.2969 32.9756 47.0645C33.1214 46.8366 33.2878 46.472 33.4746 45.9707C33.666 45.474 33.7891 45.1504 33.8438 45L31 37.5693ZM42.1593 37.5693H42.8429V41.1787L46.0352 37.5693H46.8624L43.6427 41.1787L47.1153 45H46.2471L42.8429 41.2334V45H42.1593V41.2334L38.755 45H37.8868L41.3458 41.2061L38.1397 37.5693H38.9669L42.1593 41.1787V37.5693ZM51.8214 45.1367C50.7414 45.1367 49.8983 44.804 49.2921 44.1387C48.6906 43.4733 48.3898 42.5413 48.3898 41.3428C48.3898 40.1579 48.6815 39.21 49.2648 38.499C49.8481 37.7835 50.6343 37.4258 51.6232 37.4258C52.4982 37.4258 53.1886 37.7311 53.6945 38.3418C54.2004 38.9525 54.4533 39.7819 54.4533 40.8301V41.377H49.1007C49.1099 42.3978 49.3468 43.1771 49.8117 43.7148C50.2811 44.2526 50.951 44.5215 51.8214 44.5215C52.2453 44.5215 52.6167 44.4919 52.9357 44.4326C53.2593 44.3734 53.6671 44.2458 54.1593 44.0498V44.665C53.7401 44.8473 53.3527 44.9704 52.9972 45.0342C52.6418 45.1025 52.2498 45.1367 51.8214 45.1367ZM51.6232 38.0273C50.9077 38.0273 50.3335 38.2643 49.9005 38.7383C49.4676 39.2077 49.2147 39.8867 49.1418 40.7754H53.7355C53.7355 39.9141 53.5487 39.2419 53.175 38.7588C52.8013 38.2712 52.284 38.0273 51.6232 38.0273ZM61.6575 37.5693V40.8301H66.3743V37.5693H67.0443V45H66.3743V41.418H61.6575V45H60.9808V37.5693H61.6575ZM72.9604 45.1367C71.8803 45.1367 71.0372 44.804 70.4311 44.1387C69.8295 43.4733 69.5287 42.5413 69.5287 41.3428C69.5287 40.1579 69.8204 39.21 70.4037 38.499C70.987 37.7835 71.7732 37.4258 72.7621 37.4258C73.6371 37.4258 74.3275 37.7311 74.8334 38.3418C75.3393 38.9525 75.5922 39.7819 75.5922 40.8301V41.377H70.2396C70.2488 42.3978 70.4857 43.1771 70.9506 43.7148C71.42 44.2526 72.0899 44.5215 72.9604 44.5215C73.3842 44.5215 73.7556 44.4919 74.0746 44.4326C74.3982 44.3734 74.8061 44.2458 75.2982 44.0498V44.665C74.879 44.8473 74.4916 44.9704 74.1361 45.0342C73.7807 45.1025 73.3887 45.1367 72.9604 45.1367ZM72.7621 38.0273C72.0466 38.0273 71.4724 38.2643 71.0395 38.7383C70.6065 39.2077 70.3536 39.8867 70.2807 40.7754H74.8744C74.8744 39.9141 74.6876 39.2419 74.3139 38.7588C73.9402 38.2712 73.4229 38.0273 72.7621 38.0273ZM81.0298 45.1367C79.9679 45.1367 79.1362 44.8018 78.5346 44.1318C77.9331 43.4619 77.6323 42.5277 77.6323 41.3291C77.6323 40.0986 77.9445 39.1416 78.5688 38.458C79.1932 37.7699 80.0477 37.4258 81.1323 37.4258C81.7749 37.4258 82.3901 37.5374 82.978 37.7607L82.7934 38.3623C82.1509 38.1481 81.5926 38.041 81.1186 38.041C80.2072 38.041 79.5167 38.3236 79.0473 38.8887C78.5779 39.4492 78.3432 40.2581 78.3432 41.3154C78.3432 42.318 78.5779 43.1042 79.0473 43.6738C79.5167 44.2389 80.173 44.5215 81.0161 44.5215C81.6906 44.5215 82.3172 44.4007 82.896 44.1592V44.7881C82.422 45.0205 81.7999 45.1367 81.0298 45.1367ZM83.897 37.5693H84.5943L86.1666 41.7393C86.6451 43.0199 86.9481 43.8835 87.0757 44.3301H87.1168C87.3082 43.7422 87.6203 42.8649 88.0533 41.6982L89.6255 37.5693H90.3228L86.9937 46.2031C86.7248 46.9049 86.4992 47.3789 86.317 47.625C86.1347 47.8711 85.9205 48.0557 85.6744 48.1787C85.4328 48.3018 85.1389 48.3633 84.7925 48.3633C84.5328 48.3633 84.2434 48.3154 83.9244 48.2197V47.6318C84.1887 47.7048 84.4735 47.7412 84.7789 47.7412C85.0113 47.7412 85.2164 47.6865 85.3941 47.5771C85.5718 47.4678 85.7313 47.2969 85.8726 47.0645C86.0185 46.8366 86.1848 46.472 86.3716 45.9707C86.563 45.474 86.6861 45.1504 86.7408 45L83.897 37.5693ZM36.9609 57.1572H34.4863V64H33.8164V57.1572H31.2803V56.5693H36.9609V57.1572ZM44.6134 58.3604C44.6134 58.8298 44.4971 59.1989 44.2647 59.4678C44.0323 59.7321 43.654 59.9167 43.13 60.0215V60.0693C43.727 60.1377 44.1576 60.3109 44.422 60.5889C44.6908 60.8623 44.8253 61.2565 44.8253 61.7715C44.8253 62.487 44.5883 63.0384 44.1143 63.4258C43.6449 63.8086 42.9568 64 42.0499 64H38.9122V56.5693H42.0636C42.9112 56.5693 43.547 56.722 43.9708 57.0273C44.3992 57.3327 44.6134 57.777 44.6134 58.3604ZM44.1075 61.7578C44.1075 60.8464 43.408 60.3906 42.0089 60.3906H39.5889V63.3574H42.1046C43.4399 63.3574 44.1075 62.8242 44.1075 61.7578ZM43.8956 58.415C43.8956 57.9821 43.7406 57.6745 43.4307 57.4922C43.1208 57.3053 42.656 57.2119 42.0362 57.2119H39.5889V59.7549H41.9542C42.6469 59.7549 43.1436 59.6478 43.4444 59.4336C43.7452 59.2194 43.8956 58.8799 43.8956 58.415ZM53.4074 60.2744C53.4074 61.4867 53.1134 62.4346 52.5255 63.1182C51.9377 63.7972 51.1265 64.1367 50.092 64.1367C49.4403 64.1367 48.866 63.9795 48.3693 63.665C47.8726 63.3506 47.492 62.8994 47.2277 62.3115C46.9634 61.7236 46.8312 61.0446 46.8312 60.2744C46.8312 59.0622 47.1252 58.1188 47.713 57.4443C48.3009 56.7653 49.1076 56.4258 50.133 56.4258C51.1538 56.4258 51.9536 56.7699 52.5324 57.458C53.1157 58.1416 53.4074 59.0804 53.4074 60.2744ZM47.5421 60.2744C47.5421 61.2952 47.7655 62.0928 48.2121 62.667C48.6632 63.2367 49.299 63.5215 50.1193 63.5215C50.9396 63.5215 51.5731 63.2367 52.0197 62.667C52.4709 62.0928 52.6964 61.2952 52.6964 60.2744C52.6964 59.249 52.4686 58.4538 52.0129 57.8887C51.5617 57.3236 50.9259 57.041 50.1056 57.041C49.2853 57.041 48.6518 57.3236 48.2052 57.8887C47.7632 58.4492 47.5421 59.2445 47.5421 60.2744ZM56.5276 56.5693V61.9424L56.4866 63.3438L60.8957 56.5693H61.7981V64H61.1487V58.6611L61.176 57.2256L56.7668 64H55.885V56.5693H56.5276ZM58.845 55.5166C58.1659 55.5166 57.6487 55.3662 57.2932 55.0654C56.9377 54.7601 56.7304 54.2702 56.6711 53.5957H57.2727C57.3411 54.097 57.496 54.4525 57.7375 54.6621C57.9791 54.8672 58.3528 54.9697 58.8586 54.9697C59.3599 54.9697 59.7314 54.8626 59.9729 54.6484C60.219 54.4342 60.3694 54.0833 60.4241 53.5957H61.0256C60.9299 54.8763 60.203 55.5166 58.845 55.5166ZM70.1713 59.7754C71.5157 59.7754 72.1879 59.3128 72.1879 58.3877C72.1879 57.9456 72.0329 57.6084 71.723 57.376C71.4131 57.1436 70.9711 57.0273 70.3969 57.0273C70.0323 57.0273 69.6928 57.0706 69.3783 57.1572C69.0639 57.2393 68.7266 57.36 68.3666 57.5195L68.1137 56.959C68.9066 56.6035 69.6768 56.4258 70.4242 56.4258C71.2354 56.4258 71.8506 56.5944 72.2699 56.9316C72.6892 57.2689 72.8988 57.736 72.8988 58.333C72.8988 59.1943 72.4568 59.7435 71.5727 59.9805V60.0215C72.1241 60.1582 72.5251 60.3861 72.7758 60.7051C73.0264 61.0195 73.1518 61.4229 73.1518 61.915C73.1518 62.6032 72.8988 63.1455 72.393 63.542C71.8917 63.9385 71.1944 64.1367 70.3012 64.1367C69.8181 64.1367 69.376 64.0911 68.975 64C68.5785 63.9043 68.2504 63.779 67.9906 63.624V62.9473C68.46 63.1706 68.8656 63.3232 69.2074 63.4053C69.5492 63.4827 69.9138 63.5215 70.3012 63.5215C70.9756 63.5215 71.4997 63.3802 71.8734 63.0977C72.2517 62.8105 72.4408 62.4027 72.4408 61.874C72.4408 61.359 72.2608 60.9785 71.9008 60.7324C71.5408 60.4863 71.0007 60.3633 70.2807 60.3633H69.2484V59.7754H70.1713ZM80.0317 64L79.8608 62.8242H79.8061C79.4324 63.3027 79.0473 63.6423 78.6509 63.8428C78.2589 64.0387 77.7941 64.1367 77.2563 64.1367C76.5272 64.1367 75.9598 63.9499 75.5542 63.5762C75.1486 63.2025 74.9458 62.6852 74.9458 62.0244C74.9458 61.2998 75.2466 60.737 75.8481 60.3359C76.4542 59.9349 77.3292 59.723 78.4731 59.7002L79.8882 59.6592V59.167C79.8882 58.4606 79.7446 57.9274 79.4575 57.5674C79.1704 57.2074 78.7078 57.0273 78.0698 57.0273C77.3817 57.0273 76.6684 57.2188 75.9302 57.6016L75.6772 57.0137C76.493 56.6309 77.2996 56.4395 78.0971 56.4395C78.9129 56.4395 79.5213 56.6514 79.9223 57.0752C80.3279 57.499 80.5307 58.1598 80.5307 59.0576V64H80.0317ZM77.2973 63.5215C78.0903 63.5215 78.7147 63.2959 79.1704 62.8447C79.6307 62.389 79.8608 61.7578 79.8608 60.9512V60.2197L78.562 60.2744C77.5184 60.3245 76.7733 60.4886 76.3266 60.7666C75.8846 61.04 75.6636 61.4684 75.6636 62.0518C75.6636 62.5166 75.8048 62.8789 76.0874 63.1387C76.3745 63.3939 76.7778 63.5215 77.2973 63.5215ZM87.397 56.5693H88.2379L84.9088 60.165L88.4771 64H87.5679L84.0543 60.2334V64H83.3638V56.5693H84.0543V60.1787L87.397 56.5693ZM94.7213 64L94.5504 62.8242H94.4957C94.122 63.3027 93.737 63.6423 93.3405 63.8428C92.9485 64.0387 92.4837 64.1367 91.9459 64.1367C91.2168 64.1367 90.6494 63.9499 90.2438 63.5762C89.8382 63.2025 89.6354 62.6852 89.6354 62.0244C89.6354 61.2998 89.9362 60.737 90.5377 60.3359C91.1439 59.9349 92.0189 59.723 93.1627 59.7002L94.5778 59.6592V59.167C94.5778 58.4606 94.4342 57.9274 94.1471 57.5674C93.86 57.2074 93.3974 57.0273 92.7594 57.0273C92.0713 57.0273 91.358 57.2188 90.6198 57.6016L90.3668 57.0137C91.1826 56.6309 91.9892 56.4395 92.7868 56.4395C93.6025 56.4395 94.2109 56.6514 94.612 57.0752C95.0176 57.499 95.2204 58.1598 95.2204 59.0576V64H94.7213ZM91.987 63.5215C92.7799 63.5215 93.4043 63.2959 93.86 62.8447C94.3203 62.389 94.5504 61.7578 94.5504 60.9512V60.2197L93.2516 60.2744C92.208 60.3245 91.4629 60.4886 91.0163 60.7666C90.5742 61.04 90.3532 61.4684 90.3532 62.0518C90.3532 62.5166 90.4944 62.8789 90.777 63.1387C91.0641 63.3939 91.4674 63.5215 91.987 63.5215ZM99.4548 59.7754C100.799 59.7754 101.471 59.3128 101.471 58.3877C101.471 57.9456 101.316 57.6084 101.007 57.376C100.697 57.1436 100.255 57.0273 99.6804 57.0273C99.3158 57.0273 98.9763 57.0706 98.6618 57.1572C98.3474 57.2393 98.0101 57.36 97.6501 57.5195L97.3972 56.959C98.1902 56.6035 98.9603 56.4258 99.7077 56.4258C100.519 56.4258 101.134 56.5944 101.553 56.9316C101.973 57.2689 102.182 57.736 102.182 58.333C102.182 59.1943 101.74 59.7435 100.856 59.9805V60.0215C101.408 60.1582 101.809 60.3861 102.059 60.7051C102.31 61.0195 102.435 61.4229 102.435 61.915C102.435 62.6032 102.182 63.1455 101.676 63.542C101.175 63.9385 100.478 64.1367 99.5847 64.1367C99.1016 64.1367 98.6596 64.0911 98.2585 64C97.862 63.9043 97.5339 63.779 97.2741 63.624V62.9473C97.7435 63.1706 98.1491 63.3232 98.4909 63.4053C98.8327 63.4827 99.1973 63.5215 99.5847 63.5215C100.259 63.5215 100.783 63.3802 101.157 63.0977C101.535 62.8105 101.724 62.4027 101.724 61.874C101.724 61.359 101.544 60.9785 101.184 60.7324C100.824 60.4863 100.284 60.3633 99.5642 60.3633H98.532V59.7754H99.4548Z" fill="black"/>
</svg>
