<svg width="214" height="108" viewBox="0 0 214 108" fill="none" xmlns="http://www.w3.org/2000/svg">
<path d="M202.197 53.1482C202.197 86.6811 170.582 97 109.895 97C49.2089 97 12 69.8162 12 36.2832C12 2.75025 91.9632 10.8625 152.65 10.8625C213.336 10.8625 202.197 19.6152 202.197 53.1482Z" fill="#C4C4C4" fill-opacity="0.3"/>
<path d="M212.1 53.5632C212.1 63.8259 209.918 72.2389 205.654 79.1027C201.39 85.9654 194.998 91.3537 186.454 95.4918C169.318 103.791 143.664 107 109.684 107C75.8428 107 48.6412 98.6016 29.9288 85.1127C11.2295 71.6332 1 53.075 1 32.6274C1 27.6156 2.34436 23.422 4.80309 19.8914C7.26931 16.35 10.8927 13.4249 15.5218 11.0229C24.8037 6.20646 37.9661 3.5752 53.382 2.23514C74.2329 0.422662 98.929 0.985564 123.278 1.54056C134.948 1.80655 146.538 2.07072 157.587 2.07072C174.578 2.07072 186.463 2.7512 194.751 4.39965C203.041 6.04862 207.542 8.62959 210.014 12.2687C212.512 15.9473 213.095 20.9213 212.988 27.7842C212.945 30.5332 212.793 33.5406 212.627 36.8502C212.587 37.6514 212.545 38.4703 212.505 39.3075C212.296 43.5935 212.1 48.3354 212.1 53.5632Z" stroke="#ededed"  stroke-width="2"/>
</svg>
