<svg width="705" height="712" viewBox="0 0 705 712" fill="none" xmlns="http://www.w3.org/2000/svg">
<path d="M229.869 114.017C288.404 88.5016 364.42 87.8601 431.516 106.657C498.648 125.464 556.444 163.606 578.949 215.233C601.672 267.363 625.649 341.245 629.264 408.431C632.882 475.675 616.108 535.602 558.071 560.9C529.106 573.527 485.292 570.581 434.831 557.128C384.459 543.698 327.79 519.888 273.34 491.194C218.894 462.502 166.719 428.953 125.331 396.077C83.8787 363.15 53.4545 331.058 42.2332 305.316C30.9644 279.464 29.7639 257.93 35.9436 239.358C42.1349 220.752 55.8062 204.899 74.705 190.578C93.6048 176.256 117.623 163.546 144.34 151.19C161.624 143.196 179.98 135.376 198.774 127.368C209.042 122.993 219.442 118.563 229.869 114.017Z" stroke="#C4C4C4" stroke-opacity="0.5" stroke-width="3"/>
<path d="M214.213 124.251C307.459 81.3881 463.689 116.46 507.057 198.12C550.426 279.78 603.179 430.425 509.933 473.288C416.688 516.15 115.084 362.276 71.7157 280.617C28.3472 198.957 120.968 167.114 214.213 124.251Z" fill="#FBFBFB"/>
</svg>
