<svg width="258" height="98" viewBox="0 0 258 98" fill="none" xmlns="http://www.w3.org/2000/svg">
<path d="M242 42.5883C242 76.764 209.439 86.4826 133.5 86.4826C57.5608 86.4826 12 76.764 12 42.5883C12 8.41263 76.61 8 152.549 8C228.488 8 242 8.41264 242 42.5883Z" fill="#EDEDED"/>
<path d="M257 42.6309C257 53.2658 254.749 61.91 250.127 68.9189C245.506 75.9278 238.455 81.3918 228.697 85.5623C209.125 93.9271 178.886 97.0002 136.291 97.0002C93.711 97.0002 59.7899 93.9312 36.5411 85.5412C24.9288 81.3505 16.0511 75.8571 10.0789 68.8222C4.12328 61.807 1 53.1927 1 42.6309C1 31.872 1.86829 23.9979 4.40627 18.1827C6.90988 12.4463 11.0732 8.63892 17.906 6.086C24.8014 3.50972 34.3807 2.2258 47.6416 1.5978C60.3083 0.997927 76.2327 0.998904 96.2362 1.00013C97.1489 1.00019 98.0702 1.00024 99 1.00024C99.9038 1.00024 100.806 1.00019 101.707 1.00014C143.307 0.997736 181.888 0.995507 210.266 6.13327C224.763 8.75795 236.476 12.7054 244.546 18.5907C252.561 24.436 257 32.1992 257 42.6309Z" stroke="#EDEDED" stroke-width="2"/>
</svg>
