<svg width="846" height="472" viewBox="0 0 846 472" fill="none" xmlns="http://www.w3.org/2000/svg">
<path d="M769.573 413.119C768.994 439.782 160.037 467.73 49.2134 453.394C-61.6097 439.058 50.7222 426.011 50.4929 394.505C51.0722 367.843 183.771 351.943 400.023 356.641C616.275 361.339 770.152 386.457 769.573 413.119Z" fill="#C4C4C4" fill-opacity="0.2"/>
<circle cx="591.059" cy="166.019" r="5" transform="rotate(12.5852 591.059 166.019)" fill="#F2F2F2"/>
<path d="M831.091 107.902C823.809 144.745 770.47 165.236 711.955 153.67C653.44 142.104 611.908 102.862 619.19 66.019C626.472 29.1764 704.592 21.7524 763.107 33.318C821.621 44.8837 838.373 71.0594 831.091 107.902Z" fill="#C4C4C4" fill-opacity="0.22"/>
<circle cx="620.469" cy="149.019" r="10" transform="rotate(12.5852 620.469 149.019)" fill="#F2F2F2"/>
<path d="M659.617 59.6956L659.021 62.3643C658.831 63.2183 659.223 63.754 660.197 63.9715C660.601 64.0618 661.002 64.0859 661.399 64.0438C661.796 64.0017 662.261 63.8838 662.795 63.69L663.494 60.561L664.601 60.8083L662.969 68.1204L661.861 67.8732L662.6 64.564C662.061 64.78 661.577 64.91 661.147 64.9541C660.722 64.9947 660.259 64.9589 659.756 64.8467C659.027 64.6838 658.498 64.365 658.169 63.8901C657.841 63.4153 657.75 62.8509 657.896 62.1971L658.51 59.4484L659.617 59.6956ZM669.749 69.7744C668.668 69.5331 667.888 69.0133 667.408 68.215C666.932 67.4177 666.825 66.4342 667.086 65.2644C667.349 64.0857 667.847 63.214 668.58 62.6492C669.318 62.0855 670.176 61.9128 671.154 62.1313C672.071 62.3358 672.728 62.8001 673.127 63.5242C673.526 64.2438 673.616 65.0973 673.396 66.0847L673.239 66.7853L668.202 65.6607C668.033 66.5241 668.103 67.2238 668.413 67.76C668.727 68.2971 669.258 68.6491 670.005 68.8159C670.792 68.9917 671.608 69.0009 672.451 68.8435L672.23 69.8309C671.801 69.9126 671.403 69.9497 671.035 69.9425C670.672 69.9406 670.243 69.8846 669.749 69.7744ZM670.934 63.0557C670.347 62.9246 669.835 63.0111 669.398 63.3151C668.966 63.6202 668.643 64.1038 668.43 64.766L672.253 65.6194C672.409 64.9211 672.372 64.3526 672.143 63.914C671.915 63.4708 671.512 63.1847 670.934 63.0557ZM679.102 71.8623C678.626 71.7561 678.209 71.572 677.852 71.3102C677.5 71.0449 677.232 70.7001 677.046 70.2758L676.966 70.2579C676.924 70.6968 676.861 71.1075 676.775 71.49L676.103 74.499L674.996 74.2517L677.361 63.6571L678.262 63.8582L678.192 64.8932L678.245 64.9051C678.619 64.5683 679.015 64.3532 679.433 64.2597C679.851 64.1662 680.304 64.1741 680.794 64.2833C681.763 64.4998 682.436 64.9979 682.813 65.7778C683.195 66.5587 683.252 67.5474 682.985 68.7438C682.717 69.9448 682.239 70.8187 681.552 71.3657C680.87 71.9093 680.053 72.0748 679.102 71.8623ZM680.423 65.1882C679.676 65.0214 679.09 65.1076 678.664 65.4468C678.238 65.7859 677.92 66.406 677.709 67.3069L677.654 67.5537C677.425 68.5812 677.432 69.3555 677.675 69.8768C677.919 70.3936 678.419 70.7364 679.175 70.9052C679.807 71.0462 680.358 70.9006 680.828 70.4686C681.302 70.0375 681.64 69.3728 681.84 68.4743C682.044 67.5625 682.019 66.824 681.767 66.2588C681.521 65.6901 681.073 65.3332 680.423 65.1882ZM688.215 66.0802L687.531 69.1425L691.628 70.057L692.311 66.9947L693.419 67.242L691.786 74.5542L690.679 74.3069L691.415 71.0111L687.318 70.0965L686.582 73.3924L685.475 73.1451L687.107 65.8329L688.215 66.0802ZM697.566 71.3409L699.561 71.7862C700.491 71.9938 701.139 72.3206 701.506 72.7669C701.879 73.2096 701.989 73.7735 701.836 74.4585C701.672 75.1923 701.31 75.6952 700.75 75.967C700.195 76.2354 699.457 76.2668 698.537 76.0612L695.501 75.3835L697.133 68.0713L698.241 68.3186L697.566 71.3409ZM703.674 77.2081L702.566 76.9609L704.199 69.6487L705.306 69.896L703.674 77.2081ZM697.353 72.2949L696.816 74.7034L698.69 75.1219C699.865 75.3841 700.543 75.1037 700.727 74.2809C700.819 73.8717 700.749 73.5434 700.52 73.296C700.29 73.0487 699.848 72.852 699.195 72.706L697.353 72.2949ZM710.069 70.9592L709.033 75.596L708.716 76.7998L708.611 77.1756L713.958 71.8275L715.339 72.1359L713.707 79.448L712.673 79.2172L713.671 74.7471L713.887 73.8709L714.114 73.0111L708.776 78.3473L707.395 78.039L709.028 70.7268L710.069 70.9592ZM712.373 70.458C711.55 70.2743 710.985 69.9823 710.677 69.5821C710.371 69.1775 710.277 68.6055 710.395 67.8661L711.436 68.0985C711.372 68.57 711.421 68.9192 711.58 69.1463C711.744 69.3743 712.077 69.5444 712.58 69.6567C713.038 69.7589 713.398 69.7365 713.659 69.5895C713.925 69.4434 714.132 69.1579 714.278 68.733L715.325 68.9668C715.115 69.6577 714.775 70.1257 714.304 70.3709C713.835 70.6117 713.191 70.6407 712.373 70.458ZM728.233 75.0144L729.447 75.2855L725.504 78.1103L728.075 82.6558L726.781 82.3668L724.271 77.9193L723.445 81.6221L722.337 81.3748L723.97 74.0627L725.077 74.3099L724.283 77.8659L728.233 75.0144ZM737.956 79.1114C737.85 79.5873 737.631 79.919 737.3 80.1065C736.974 80.2906 736.555 80.3698 736.042 80.344L736.029 80.4041C736.633 80.6276 737.045 80.9113 737.268 81.255C737.494 81.5998 737.552 82.019 737.442 82.5127C737.29 83.1932 736.922 83.662 736.337 83.9189C735.756 84.1769 734.985 84.1986 734.025 83.9841L730.802 83.2647L732.435 75.9525L735.644 76.669C737.459 77.0741 738.229 77.8883 737.956 79.1114ZM736.351 82.1921C736.439 81.7962 736.352 81.4756 736.089 81.2301C735.832 80.9812 735.357 80.7794 734.663 80.6244L732.655 80.1761L732.117 82.5846L734.152 83.0389C735.428 83.3239 736.161 83.0416 736.351 82.1921ZM736.852 78.9768C736.931 78.621 736.849 78.3389 736.606 78.1306C736.369 77.9188 735.972 77.7508 735.416 77.6267L733.328 77.1605L732.868 79.2221L734.742 79.6406C735.427 79.7935 735.929 79.8168 736.247 79.7103C736.565 79.6038 736.766 79.3594 736.852 78.9768ZM744.445 86.3104L744.457 85.2205L744.403 85.2086C743.936 85.5853 743.502 85.8152 743.101 85.8983C742.705 85.978 742.235 85.9573 741.693 85.8361C740.968 85.6743 740.44 85.3604 740.11 84.8944C739.784 84.4294 739.698 83.8522 739.852 83.1628C740.182 81.6862 741.535 81.1759 743.913 81.632L745.163 81.869L745.264 81.4153C745.392 80.8416 745.362 80.3912 745.174 80.0643C744.991 79.7339 744.628 79.5082 744.085 79.387C743.476 79.251 742.745 79.2839 741.892 79.4857L741.741 78.5624C742.145 78.4472 742.572 78.3816 743.024 78.3657C743.481 78.3509 743.924 78.3916 744.356 78.4879C745.228 78.6825 745.829 79.02 746.161 79.5003C746.497 79.9816 746.57 80.6492 746.379 81.5032L745.265 86.4936L744.445 86.3104ZM742.117 84.9713C742.806 85.1252 743.389 85.0568 743.865 84.7661C744.345 84.4764 744.661 83.9913 744.813 83.3108L744.96 82.6503L743.843 82.4498C742.955 82.2843 742.288 82.2802 741.842 82.4374C741.402 82.5912 741.124 82.9238 741.01 83.4353C740.921 83.8356 740.973 84.1671 741.166 84.4298C741.364 84.6935 741.681 84.8739 742.117 84.9713ZM754.707 91.2561L753.633 91.0163L754.197 88.4877L749.087 87.3468L748.522 89.8754L747.455 89.637L748.232 86.1544L748.806 86.2825C749.583 85.6061 750.262 84.7607 750.843 83.7465C751.424 82.7323 751.861 81.6017 752.154 80.3549L755.856 81.1815L754.437 87.5397L755.484 87.7735L754.707 91.2561ZM753.369 87.3013L754.594 81.8172L752.953 81.4508C752.674 82.4253 752.26 83.3833 751.709 84.325C751.163 85.2631 750.578 86.001 749.954 86.5387L753.369 87.3013ZM761.478 90.2534C761.002 90.1471 760.586 89.9631 760.229 89.7012C759.877 89.4359 759.608 89.0911 759.423 88.6668L759.343 88.649C759.301 89.0879 759.237 89.4986 759.152 89.8811L758.48 92.89L757.373 92.6428L759.738 82.0481L760.639 82.2492L760.569 83.2842L760.622 83.2961C760.996 82.9594 761.392 82.7442 761.81 82.6507C762.228 82.5572 762.681 82.5651 763.17 82.6743C764.14 82.8908 764.813 83.389 765.19 84.1689C765.571 84.9498 765.629 85.9384 765.361 87.1349C765.093 88.3358 764.616 89.2098 763.929 89.7568C763.247 90.3003 762.43 90.4659 761.478 90.2534ZM762.8 83.5793C762.053 83.4125 761.466 83.4986 761.04 83.8378C760.615 84.177 760.296 84.797 760.086 85.6979L760.031 85.9448C759.801 86.9722 759.808 87.7466 760.051 88.2678C760.296 88.7846 760.796 89.1274 761.552 89.2962C762.183 89.4372 762.734 89.2917 763.204 88.8596C763.679 88.4286 764.016 87.7638 764.217 86.8654C764.42 85.9536 764.396 85.215 764.144 84.6498C763.898 84.0811 763.45 83.7243 762.8 83.5793ZM772.348 92.5401L772.36 91.4501L772.307 91.4382C771.84 91.8149 771.406 92.0448 771.004 92.128C770.608 92.2076 770.139 92.1869 769.596 92.0658C768.871 91.9039 768.344 91.59 768.014 91.124C767.688 90.6591 767.602 90.0819 767.756 89.3925C768.085 87.9158 769.439 87.4055 771.817 87.8616L773.067 88.0987L773.168 87.645C773.296 87.0712 773.266 86.6209 773.077 86.294C772.894 85.9636 772.531 85.7378 771.989 85.6167C771.379 85.4806 770.648 85.5135 769.795 85.7153L769.644 84.7921C770.048 84.6768 770.476 84.6112 770.928 84.5954C771.384 84.5805 771.828 84.6212 772.26 84.7175C773.131 84.9122 773.733 85.2496 774.065 85.7299C774.401 86.2112 774.474 86.8789 774.283 87.7328L773.169 92.7233L772.348 92.5401ZM770.021 91.2009C770.71 91.3548 771.293 91.2864 771.768 90.9958C772.249 90.7061 772.565 90.221 772.717 89.5405L772.864 88.88L771.746 88.6794C770.859 88.5139 770.192 88.5098 769.746 88.6671C769.305 88.8209 769.028 89.1535 768.914 89.665C768.824 90.0653 768.876 90.3968 769.07 90.6594C769.268 90.9231 769.585 91.1036 770.021 91.2009ZM783.175 88.2751L780.8 87.7449L779.379 94.1097L778.271 93.8624L779.692 87.4976L777.344 86.9733L777.555 86.0259L783.386 87.3278L783.175 88.2751ZM786.169 92.8029L785.469 92.6465L786.706 85.5053L788.087 85.8136L786.169 92.8029ZM784.566 94.5253C784.701 93.9204 785.035 93.6775 785.569 93.7966C785.827 93.8542 786.008 93.9763 786.111 94.1627C786.218 94.3502 786.239 94.5907 786.174 94.8842C786.11 95.1689 785.989 95.3754 785.811 95.5037C785.634 95.6276 785.419 95.6613 785.165 95.6047C784.934 95.553 784.758 95.4414 784.638 95.2698C784.518 95.0937 784.494 94.8455 784.566 94.5253ZM658.443 84.9259C658.337 85.4018 658.118 85.7336 657.787 85.9211C657.461 86.1051 657.042 86.1843 656.529 86.1586L656.516 86.2186C657.12 86.4422 657.533 86.7258 657.755 87.0696C657.981 87.4143 658.039 87.8335 657.929 88.3273C657.777 89.0078 657.409 89.4765 656.824 89.7335C656.243 89.9914 655.472 90.0131 654.512 89.7987L651.289 89.0792L652.922 81.7671L656.131 82.4835C657.946 82.8886 658.716 83.7028 658.443 84.9259ZM656.838 88.0066C656.926 87.6108 656.839 87.2901 656.576 87.0447C656.319 86.7958 655.844 86.5939 655.15 86.439L653.142 85.9906L652.604 88.3991L654.639 88.8534C655.915 89.1384 656.648 88.8561 656.838 88.0066ZM657.339 84.7914C657.418 84.4356 657.336 84.1535 657.093 83.9451C656.856 83.7333 656.459 83.5654 655.903 83.4412L653.815 82.975L653.355 85.0366L655.229 85.4551C655.914 85.6081 656.416 85.6313 656.734 85.5248C657.052 85.4184 657.253 85.1739 657.339 84.7914ZM663.327 91.9069C662.269 91.6705 661.521 91.1626 661.083 90.3832C660.651 89.6003 660.568 88.6128 660.834 87.4208C661.107 86.1976 661.611 85.318 662.347 84.7819C663.088 84.2468 664.003 84.1009 665.093 84.3442C665.444 84.4226 665.787 84.5389 666.122 84.693C666.456 84.847 666.712 84.9975 666.889 85.1445L666.339 86.0093C666.116 85.8568 665.867 85.7172 665.592 85.5903C665.318 85.4591 665.069 85.3686 664.847 85.319C663.362 84.9873 662.407 85.7689 661.984 87.6636C661.784 88.5621 661.81 89.2917 662.063 89.8525C662.32 90.4143 662.805 90.7746 663.517 90.9335C664.126 91.0695 664.78 91.0779 665.479 90.9584L665.26 91.9392C664.714 92.0835 664.07 92.0727 663.327 91.9069ZM671.372 93.7029C670.291 93.4616 669.511 92.9418 669.031 92.1435C668.555 91.3462 668.448 90.3627 668.709 89.1929C668.972 88.0143 669.47 87.1425 670.203 86.5778C670.941 86.014 671.799 85.8413 672.777 86.0598C673.693 86.2644 674.351 86.7287 674.75 87.4527C675.149 88.1723 675.239 89.0258 675.018 90.0133L674.862 90.7138L669.825 89.5892C669.656 90.4526 669.726 91.1524 670.036 91.6885C670.35 92.2256 670.881 92.5776 671.628 92.7444C672.415 92.9202 673.23 92.9294 674.073 92.772L673.853 93.7595C673.424 93.8411 673.026 93.8783 672.658 93.871C672.294 93.8691 671.866 93.8131 671.372 93.7029ZM672.557 86.9842C671.97 86.8531 671.458 86.9396 671.021 87.2437C670.589 87.5487 670.266 88.0323 670.053 88.6945L673.876 89.548C674.031 88.8497 673.995 88.2812 673.766 87.8425C673.538 87.3994 673.135 87.1133 672.557 86.9842ZM688.163 89.6348L689.377 89.9059L685.434 92.7307L688.005 97.2762L686.711 96.9872L684.201 92.5397L683.375 96.2425L682.267 95.9952L683.9 88.6831L685.007 88.9303L684.213 92.4863L688.163 89.6348ZM695.229 98.889L695.241 97.7991L695.188 97.7872C694.721 98.1639 694.287 98.3938 693.885 98.4769C693.489 98.5566 693.02 98.5359 692.477 98.4147C691.752 98.2529 691.225 97.939 690.894 97.473C690.569 97.008 690.483 96.4309 690.637 95.7414C690.966 94.2648 692.32 93.7545 694.698 94.2106L695.947 94.4476L696.049 93.994C696.177 93.4202 696.147 92.9698 695.958 92.6429C695.775 92.3125 695.412 92.0868 694.87 91.9656C694.26 91.8296 693.529 91.8625 692.676 92.0643L692.525 91.141C692.929 91.0258 693.357 90.9602 693.809 90.9443C694.265 90.9295 694.709 90.9702 695.14 91.0665C696.012 91.2611 696.614 91.5986 696.946 92.0789C697.282 92.5602 697.355 93.2278 697.164 94.0818L696.05 99.0722L695.229 98.889ZM692.901 97.5499C693.591 97.7038 694.173 97.6354 694.649 97.3447C695.13 97.055 695.446 96.5699 695.598 95.8894L695.745 95.2289L694.627 95.0284C693.74 94.8629 693.073 94.8588 692.627 95.016C692.186 95.1698 691.909 95.5025 691.795 96.014C691.705 96.4143 691.757 96.7457 691.951 97.0084C692.149 97.2721 692.466 97.4526 692.901 97.5499ZM705.6 93.5278L706.814 93.7989L702.871 96.6237L705.442 101.169L704.148 100.88L701.639 96.4326L700.812 100.135L699.704 99.8882L701.337 92.576L702.444 92.8233L701.651 96.3793L705.6 93.5278ZM713.452 102.957L712.158 102.668L714.949 100.049C714.412 99.798 714.032 99.461 713.809 99.0377C713.591 98.6109 713.543 98.1261 713.664 97.5835C713.813 96.9163 714.155 96.4416 714.69 96.1594C715.224 95.8772 715.894 95.826 716.699 96.0057L719.955 96.7326L718.322 104.045L717.215 103.797L717.867 100.875L716.019 100.463L713.452 102.957ZM714.742 97.8381C714.553 98.6832 715.073 99.2428 716.301 99.5169L718.082 99.9146L718.633 97.446L716.625 96.9977C715.548 96.7574 714.921 97.0375 714.742 97.8381ZM732.41 107.19L731.29 106.94L732.711 100.575L730.516 100.085C730.042 101.641 729.595 102.861 729.174 103.743C728.753 104.625 728.323 105.243 727.884 105.598C727.45 105.954 726.97 106.073 726.445 105.956C726.205 105.903 726.02 105.833 725.889 105.748L726.072 104.927C726.164 104.976 726.273 105.014 726.397 105.042C726.909 105.156 727.436 104.707 727.98 103.693C728.524 102.68 729.119 101.09 729.766 98.923L734.043 99.8778L732.41 107.19ZM746.363 106.46C746.096 107.656 745.601 108.524 744.879 109.063C744.16 109.603 743.303 109.762 742.307 109.539C741.359 109.328 740.674 108.864 740.25 108.149C739.827 107.429 739.707 106.512 739.89 105.4L737.975 104.972L737.239 108.268L736.132 108.021L737.764 100.709L738.872 100.956L738.188 104.018L740.116 104.449C740.432 103.454 740.932 102.742 741.616 102.311C742.302 101.876 743.105 101.761 744.026 101.966C745.004 102.185 745.702 102.698 746.119 103.505C746.542 104.31 746.624 105.294 746.363 106.46ZM741.119 105.289C740.91 106.227 740.913 106.978 741.128 107.539C741.345 108.097 741.811 108.455 742.527 108.615C743.23 108.772 743.798 108.651 744.233 108.253C744.673 107.852 745 107.169 745.216 106.204C745.424 105.269 745.42 104.526 745.202 103.973C744.985 103.42 744.518 103.064 743.802 102.904C743.086 102.744 742.512 102.868 742.08 103.276C741.648 103.684 741.328 104.355 741.119 105.289ZM749.452 106.393C749.809 104.792 750.324 103.597 750.995 102.808C751.667 102.015 752.539 101.621 753.612 101.627C754.944 101.64 756.114 101.67 757.122 101.717L757.111 102.737C755.51 102.651 754.361 102.609 753.665 102.612C752.987 102.615 752.425 102.854 751.978 103.329C751.536 103.804 751.194 104.51 750.952 105.446L751.032 105.464C751.391 105.152 751.813 104.938 752.296 104.821C752.78 104.705 753.259 104.7 753.735 104.807C754.634 105.007 755.269 105.455 755.642 106.15C756.014 106.845 756.085 107.708 755.855 108.74C755.6 109.883 755.109 110.712 754.382 111.227C753.657 111.737 752.773 111.876 751.733 111.644C750.705 111.414 749.988 110.841 749.581 109.924C749.174 109.006 749.131 107.829 749.452 106.393ZM752.04 110.739C753.396 111.042 754.268 110.328 754.654 108.598C755.022 106.948 754.591 105.985 753.358 105.71C753.02 105.635 752.678 105.633 752.33 105.705C751.988 105.773 751.66 105.893 751.346 106.066C751.036 106.24 750.783 106.433 750.586 106.646C750.325 107.816 750.31 108.749 750.542 109.445C750.776 110.137 751.275 110.568 752.04 110.739ZM763.823 114.203L762.703 113.953L764.124 107.588L761.929 107.098C761.455 108.655 761.008 109.874 760.587 110.756C760.166 111.638 759.736 112.256 759.297 112.611C758.863 112.967 758.383 113.087 757.858 112.969C757.618 112.916 757.433 112.846 757.302 112.761L757.485 111.941C757.577 111.989 757.686 112.027 757.81 112.055C758.322 112.169 758.849 111.72 759.393 110.706C759.937 109.693 760.532 108.103 761.179 105.936L765.456 106.891L763.823 114.203ZM777.776 113.473C777.509 114.669 777.014 115.537 776.292 116.076C775.573 116.616 774.716 116.775 773.72 116.553C772.772 116.341 772.087 115.877 771.663 115.162C771.24 114.442 771.12 113.525 771.303 112.413L769.388 111.985L768.652 115.281L767.545 115.034L769.177 107.722L770.285 107.969L769.601 111.031L771.529 111.462C771.845 110.468 772.345 109.755 773.029 109.324C773.715 108.889 774.518 108.774 775.439 108.979C776.417 109.198 777.115 109.711 777.532 110.519C777.955 111.323 778.037 112.307 777.776 113.473ZM772.532 112.302C772.323 113.241 772.326 113.991 772.541 114.552C772.758 115.11 773.224 115.468 773.94 115.628C774.643 115.785 775.211 115.665 775.646 115.267C776.086 114.865 776.413 114.182 776.629 113.217C776.837 112.283 776.833 111.539 776.615 110.986C776.398 110.433 775.931 110.077 775.215 109.917C774.499 109.757 773.925 109.881 773.493 110.289C773.061 110.697 772.741 111.368 772.532 112.302ZM781.867 115.409L781.167 115.252L782.404 108.111L783.785 108.419L781.867 115.409ZM780.264 117.131C780.399 116.526 780.734 116.283 781.267 116.403C781.525 116.46 781.706 116.582 781.809 116.769C781.917 116.956 781.938 117.197 781.872 117.49C781.809 117.775 781.688 117.981 781.51 118.11C781.333 118.233 781.117 118.267 780.864 118.211C780.632 118.159 780.457 118.047 780.336 117.876C780.217 117.7 780.193 117.451 780.264 117.131Z" fill="black" fill-opacity="0.67"/>
</svg>
