<svg width="1883" height="1631" viewBox="0 0 1883 1631" fill="none" xmlns="http://www.w3.org/2000/svg">
<path d="M1880.23 767.723C1880.23 964.683 1776.78 1180.16 1623.99 1346.43C1471.2 1512.71 1269.34 1629.5 1072.8 1629.5C875.784 1629.5 607.762 1606.31 389.049 1533.83C170.203 1461.31 1.5 1339.72 1.5 1143.35C1.5 1094.33 19.1164 1039.7 50.8551 981.563C82.5872 923.438 128.384 861.903 184.617 799.108C297.083 673.518 451.181 543.012 617.633 424.815C784.08 306.621 962.833 200.77 1124.58 124.474C1286.39 48.1485 1430.98 1.5 1529.18 1.5C1627.49 1.5 1698.44 24.7431 1749.63 65.5984C1800.83 106.459 1832.45 165.079 1851.83 236.174C1871.22 307.282 1878.33 390.762 1880.58 481.211C1882.04 539.73 1881.47 601.096 1880.88 663.876C1880.56 698.148 1880.23 732.841 1880.23 767.723Z" stroke="#C4C4C4" stroke-opacity="0.2" stroke-width="3"/>
</svg>
