<svg width="152" height="156" viewBox="0 0 152 156" fill="none" xmlns="http://www.w3.org/2000/svg">
<path opacity="0.06" d="M23.1696 121.77C17.595 103.483 9.41897 82.9563 8.67569 81.4634C1.61457 63.9228 -2.10181 57.2051 1.24293 50.8606C3.47276 45.6357 10.1622 41.1572 16.8517 41.1572C35.4336 41.1572 43.6097 73.2529 58.1036 71.0137C64.793 69.8941 68.5094 62.4299 69.2527 61.3103C76.6855 46.3821 59.2185 32.2003 65.5363 15.406C67.7662 8.68831 74.084 1.2242 81.5168 0.10458C90.0644 -1.01504 96.7539 6.44908 123.512 42.2768C148.412 75.8654 153.986 84.0759 150.641 91.1668C147.668 97.5113 138.377 101.243 131.688 100.497C129.83 100.124 123.884 99.0041 109.018 79.9706C98.9837 67.6548 95.2674 60.1907 92.2943 60.9371C89.3212 62.0567 92.2943 70.2673 87.463 79.9706C83.0033 88.9276 72.5974 95.2721 62.9349 95.6453C51.4141 96.0185 43.9813 87.8079 41.7515 90.0472C39.5217 92.2864 45.0962 99.3773 50.6708 112.44C57.7319 128.487 63.3065 140.803 58.1036 148.64C54.0155 154.985 43.238 157.971 36.1769 154.239C29.1158 151.253 29.8591 143.789 23.1696 121.77Z" fill="black"/>
</svg>
