<svg width="313" height="745" viewBox="0 0 313 745" fill="none" xmlns="http://www.w3.org/2000/svg">
<g clip-path="url(#clip0)">
<path d="M214.433 686.935C214.433 686.935 240.935 694.954 246.765 695.332C252.454 695.893 276.358 694.351 277.679 699.294C278.999 704.236 272.684 708.878 272.684 708.878L191.292 716.446L191.384 693.647L214.433 686.935Z" fill="#181818"/>
<path d="M186.347 362.91L218.579 509.036L229.531 681.286L189.906 706.063L152.454 487.484L90.8754 383.753L130.981 326.712L160.983 318.907L186.347 362.91Z" fill="#0193D2"/>
<path d="M173.806 98.4014C175.774 98.3036 177.462 98.5736 179.171 99.0058C184.601 100.097 190.031 101.188 194.758 103.199C199.485 105.209 203.348 108.161 204.17 111.849C205.448 116.467 201.998 121.551 197.24 125.49C192.482 129.428 186.296 132.566 180.477 135.985C173.285 140.248 166.645 144.933 159.291 149.218C151.915 153.34 143.663 157.084 134.48 158.806C131.419 159.38 128.153 159.651 125.146 159.392C120.268 158.723 116.633 156.236 114.782 153.511C112.748 150.645 112.153 147.422 111.557 144.199C110.323 137.429 109.045 130.334 113.11 123.681C114.591 121.172 116.603 118.922 118.776 116.65C120.085 115.319 121.556 113.967 123.232 112.917C124.768 112.052 126.466 111.164 128.369 110.58C135.734 107.615 143.446 104.768 151.633 103.014C155.646 102.148 159.724 101.768 163.801 101.389C167.349 100.75 169.89 98.7592 173.806 98.4014Z" fill="black"/>
<path d="M102.749 713.741C102.749 713.741 129.209 726.39 132.053 726.67C134.898 726.951 154.39 729.466 157.322 732.873C160.254 736.279 153.246 740.683 153.246 740.683L73.2066 749.722L73.1267 730.578L78.0889 719.512L102.749 713.741Z" fill="#181818"/>
<path d="M200.857 94.4581L229.379 94.1161L229.413 98.0747L233.144 97.5763L234.008 91.6814L252.904 90.974L251.862 121.496L234.102 122.052L233.559 115.52L229.6 115.553L229.634 119.512L204.561 117.246C204.561 117.246 202.735 127.067 201.535 126.732C200.496 126.376 170.329 124.295 170.329 124.295L174.052 84.1677C174.667 77.6456 180.312 72.9285 186.791 73.2191L190.609 73.3696C197.596 73.7573 202.703 79.8454 201.969 86.7136L200.857 94.4581Z" fill="#706F6F"/>
<path d="M182.204 365.28L149.982 557.993L114.289 712.365L73.1263 730.578L75.4969 592.546L90.8748 383.753L123.905 320.722L144.909 317.256L182.204 365.28Z" fill="black"/>
<path d="M189.374 114.816C194.045 110.229 199.453 106.204 205.477 103.088C206.245 102.655 207.013 102.222 208.008 102.255C208.819 102.146 209.857 102.503 210.431 103.087C211.231 104.136 210.756 105.52 210.258 106.743C208.28 110.475 205.014 113.223 201.748 115.971C205.966 115.407 210.249 115.33 214.392 115.438C216.545 115.48 219.065 115.804 219.974 117.664C220.45 118.757 220.321 120.26 219.618 121.18C218.937 122.261 217.888 123.062 216.817 123.7C214.535 125.161 212.004 125.994 209.246 126.363C208.933 130.203 206.608 133.816 203.829 136.499C201.05 139.182 197.697 141.281 194.323 143.217C192.95 144.061 191.717 144.721 190.3 145.241C192.043 154.585 195.409 163.713 199.056 172.473C200.03 174.82 201.188 177.307 201.535 179.903C194.289 182.522 186.728 184.027 179.135 184.051C177.415 182.299 175.976 180.179 175.002 177.833C172.394 171.906 174.383 164.54 173.191 158.094C171.534 149.399 168.818 140.184 171.833 131.855C174.493 124.565 183.675 120.366 189.374 114.816Z" fill="#0193D2"/>
<path d="M200.475 176.907C192.135 175.049 183.201 174.921 174.829 176.535C175.252 180.937 175.675 185.339 176.098 189.74C166.871 186.184 157.643 182.628 148.416 179.072C145.809 178.099 143.181 176.964 141.255 174.909C138.55 171.968 138.149 167.728 136.98 163.921C132.747 148.304 118.046 138.379 104.35 129.805C102.187 128.443 99.8394 126.94 97.1785 126.8C94.0093 126.563 91.2623 128.251 88.6992 130.079C71.1255 143.16 64.9114 167.107 66.1926 189.063C66.6165 198.419 65.238 225.188 78.6133 253.62C84.8573 266.987 90.1367 271.896 91.6863 284.734C93.6259 300.492 87.8953 309.514 84.7615 323.143C81.7467 336.425 80.6154 356.392 91.0376 383.732C104.979 380.548 116.92 378.458 125.962 376.92C146.156 373.563 156.333 371.873 164.846 372.552C180.043 373.825 184.933 378.291 190.059 374.634C198.235 369.083 195.863 352.557 194.194 340.065C190.76 315.59 183.328 308.161 178.921 286.293C177.264 277.597 175.465 264.132 177.246 246.556C193.385 248.694 206.904 243.585 213.889 234.066C217.944 228.57 217.921 220.978 217.011 214.164C215.364 201.834 206.372 187.678 200.475 176.907Z" fill="#0193D2"/>
<path d="M164.5 372.433C180.022 373.663 184.912 378.129 190.2 374.45C198.538 368.878 196.166 352.352 194.497 339.86C191.063 315.385 183.468 307.977 179.04 285.947C177.22 277.273 175.584 263.786 177.365 246.21C193.828 248.304 207.51 243.174 214.657 233.633C218.874 228.116 218.851 220.523 217.941 213.709C216.294 201.38 207.162 187.408 201.243 176.474C192.741 174.638 183.806 174.51 175.111 176.167C175.371 180.59 175.956 184.971 176.379 189.373C166.99 185.838 157.6 182.304 148.211 178.769C145.604 177.796 142.813 176.683 140.887 174.628C138.182 171.687 137.619 167.469 136.591 163.478C135.357 159.185 133.333 155.161 130.726 151.712" fill="#181818"/>
<path d="M201.481 79.3481C202.097 77.7797 204.304 76.9896 205.85 77.4435C207.559 77.8757 208.75 79.368 209.475 81.0876C210.038 82.8288 210.092 84.4728 210.006 86.3007C209.79 89.632 209.088 93.0283 207.856 96.1652C207.12 98.0798 205.596 100.265 203.541 99.7138C201.669 99.3033 201.16 96.7292 201.084 94.923C200.728 95.9614 199.451 96.297 198.435 96.1025C197.396 95.7459 196.639 95.0214 196.022 94.113C193.577 90.6417 193.154 86.2397 193.099 82.1189C192.991 81.3078 193.066 80.6372 192.633 79.8693C191.746 78.1715 189.572 77.9665 188.382 76.4742C185.59 72.884 191.625 68.6103 194.751 68.523C199.986 68.1541 201.285 75.4112 201.481 79.3481Z" fill="#181818"/>
<path d="M217.329 87.9646C217.686 89.4031 218.043 90.8415 218.076 92.3232C218.271 93.7833 218.163 95.449 217.525 96.8552C216.888 98.2614 215.374 99.2893 213.848 98.9976C211.977 98.587 211.068 96.7269 210.667 94.964C209.975 92.2494 209.898 87.9664 211.909 85.7162C214.342 82.9143 216.614 85.0878 217.329 87.9646Z" fill="black"/>
<path d="M115.322 147.66C138.529 144.56 153.307 111.831 148.328 74.5585C143.35 37.2855 120.501 9.58255 97.2937 12.6822C74.0866 15.7819 59.3092 48.5104 64.2876 85.7834C69.266 123.056 92.1149 150.759 115.322 147.66Z" fill="#181818"/>
<path d="M173.62 189.741C164.046 183.589 149.994 176.054 132.287 170.823C115.596 165.787 105.807 162.966 95.8566 167.598C82.6296 173.658 72.3039 191.549 74.4813 206.615C80.2013 246.968 176.353 268.307 204.125 248.745C207.456 246.484 215.913 240.566 218.301 230.009C219.792 223.865 218.45 218.76 216.014 209.178C211.781 193.561 209.41 184.465 201.318 178.281C194.33 172.939 181.89 168.821 176.094 174.88C171.747 179.423 173.176 187.654 173.62 189.741Z" fill="#181818"/>
<path d="M116.545 148.157C139.745 145.058 154.535 112.369 149.551 75.0556C145.824 47.1517 132.071 24.5498 115.618 16.3444" fill="#0193D2"/>
</g>
<defs>
<clipPath id="clip0">
<rect width="265" height="729" fill="white" transform="translate(0.75293 17.3107) rotate(-3.70015)"/>
</clipPath>
</defs>
</svg>
