<svg width="645" height="595" viewBox="0 0 645 595" fill="none" xmlns="http://www.w3.org/2000/svg">
<path fill-rule="evenodd" clip-rule="evenodd" d="M326.613 337.693C380.98 337.693 435.348 337.693 489.716 337.693C535.202 337.693 565.616 356.502 572.345 378.867L599.798 470.842C606.527 493.206 562.655 512.016 517.169 512.016H497.925H318.404H299.159C253.673 512.016 209.802 493.206 216.531 470.842L243.984 378.867C250.713 356.354 281.261 337.693 326.613 337.693Z" fill="#C6C4C5"/>
<path fill-rule="evenodd" clip-rule="evenodd" d="M326.613 350.726C380.981 350.726 435.348 350.726 489.716 350.726C535.202 350.726 565.616 369.536 572.345 391.9L599.798 483.875C606.527 506.24 562.656 525.049 517.169 525.049H497.925H318.404H299.159C253.673 525.049 209.802 506.24 216.531 483.875L243.984 391.9C250.713 369.388 281.261 350.726 326.613 350.726Z" fill="#D3D1D2"/>
<path fill-rule="evenodd" clip-rule="evenodd" d="M253.538 544.896H281.126L275.339 570.815H259.325L253.538 544.896Z" fill="#C1C0BF"/>
<path fill-rule="evenodd" clip-rule="evenodd" d="M535.202 544.896H562.79L557.003 570.815H540.989L535.202 544.896Z" fill="#C1C0BF"/>
<path fill-rule="evenodd" clip-rule="evenodd" d="M543.544 547.117H580.552C594.144 547.117 607.467 539.86 610.293 530.825L641.783 431.297C644.61 422.41 635.862 415.005 622.27 415.005H585.262C571.67 415.005 558.348 422.262 555.521 431.297L534.393 498.39H281.932L260.804 431.297C257.978 422.41 244.521 415.005 231.063 415.005H194.055C180.463 415.005 171.716 422.262 174.542 431.297L206.033 530.825C208.859 539.712 222.316 547.117 235.773 547.117H272.781H543.544Z" fill="#D8D4D5"/>
<path fill-rule="evenodd" clip-rule="evenodd" d="M545.16 537.49H582.572C596.298 537.49 609.756 530.233 612.716 521.199L644.476 421.67C647.302 412.784 638.42 405.378 624.693 405.378H587.282C573.555 405.378 560.098 412.636 557.137 421.67L535.74 488.763H280.587L259.19 421.67C256.364 412.784 242.772 405.378 229.045 405.378H191.634C177.907 405.378 169.025 412.636 171.852 421.67L203.611 521.199C206.437 530.085 220.029 537.49 233.756 537.49H271.167H545.16Z" fill="#929292"/>
<path fill-rule="evenodd" clip-rule="evenodd" d="M288.258 458.697H528.069C535.336 458.697 541.257 461.807 541.257 465.51V466.695V480.617V481.802C541.257 485.504 535.336 488.615 528.069 488.615H288.258C280.991 488.615 275.069 485.504 275.069 481.802V480.617V466.695V465.51C275.069 461.807 280.991 458.697 288.258 458.697Z" fill="#E2E0E1"/>
<path d="M402.646 303.332C402.646 303.332 404.664 322.734 404.126 324.511C403.991 325.104 394.571 324.511 394.571 324.511C394.571 324.511 400.493 354.873 409.374 356.502C418.256 358.132 433.463 352.652 434.002 348.949C434.54 345.246 435.751 326.14 435.751 326.14C435.751 326.14 433.329 325.844 428.349 324.511C427.407 324.215 425.12 292.52 425.12 292.52L402.646 303.332Z" fill="black"/>
<path d="M388.248 323.623C383.538 323.475 378.962 322.29 374.656 324.215C367.12 327.473 362.679 335.916 360.525 344.506C358.372 352.948 357.969 361.983 355.546 370.425C354.066 375.609 351.913 380.348 350.298 385.384C347.203 394.27 345.453 403.749 345.184 413.376C345.049 417.523 345.319 422.114 347.472 425.521C348.952 427.891 351.374 429.52 353.931 429.964C359.045 431.001 363.89 427.742 368.196 424.78C376.674 419.3 385.825 414.561 395.649 414.265C405.742 413.968 415.432 418.264 424.717 422.559C434.541 427.002 445.173 432.334 450.017 442.85C452.305 440.628 452.036 436.777 451.363 433.667C450.69 430.557 449.614 427.15 450.69 424.04C452.305 430.26 457.957 434.852 463.744 434.704C469.531 434.555 475.183 429.816 476.528 423.595C478.009 417.227 475.586 410.562 474.241 404.193C471.415 390.271 474.241 375.609 474.241 361.39C474.241 359.317 473.702 355.318 473.164 351.023C471.818 341.099 465.224 333.102 456.342 330.584C447.999 328.066 437.771 325.252 430.773 325.4C425.794 329.695 421.218 330.436 419.2 330.584C415.297 330.88 411.933 329.695 408.434 328.362C403.589 326.585 403.724 325.4 399.956 324.511C396.861 323.475 394.169 323.771 388.248 323.623Z" fill="black"/>
<path d="M414.219 327.473C410.316 328.066 406.952 327.029 403.319 325.992C398.339 324.659 398.339 323.474 394.571 322.734C391.072 322.141 388.515 322.734 382.594 322.882C377.884 323.03 373.309 322.29 369.002 324.363C361.735 328.066 357.698 336.952 356.083 345.542C354.468 354.133 354.603 363.167 352.719 371.758C351.642 376.941 349.758 381.977 348.412 387.161C345.855 396.344 344.779 405.971 345.048 415.449C345.183 419.596 345.586 424.188 348.009 427.446C349.624 429.668 352.046 431.149 354.737 431.445C359.851 432.038 364.427 428.483 368.733 425.225C376.807 419.152 385.824 413.82 395.513 412.783C400.492 412.191 405.606 412.932 410.451 414.116" fill="#FFF10D"/>
<path d="M369.676 360.353C369.676 360.353 394.303 364.056 397.937 364.204C401.705 364.5 410.452 365.981 411.26 369.684C411.663 369.684 419.738 364.648 429.158 363.315C438.578 361.982 450.421 357.835 450.421 357.835L453.381 361.834L418.123 378.274L412.067 381.977C412.067 381.977 403.589 378.719 402.916 378.719C402.243 378.719 365.505 369.98 365.505 369.98L365.235 366.278L369.676 360.353Z" fill="#FAF1EA"/>
<path d="M366.176 364.5L403.319 373.535C404.126 373.683 404.799 374.275 405.068 375.016C405.607 376.349 406.952 378.274 410.586 378.126C414.354 377.978 415.834 375.608 416.507 373.979C416.776 373.239 417.449 372.646 418.122 372.35L453.38 361.538C454.995 361.094 456.61 362.427 456.476 364.352L454.457 415.449C454.457 416.634 453.649 417.671 452.573 417.967C445.306 420.041 418.256 427.742 417.718 427.742C417.18 427.742 376.538 419.448 367.118 417.523C366.042 417.227 365.1 416.19 365.1 415.005L363.081 367.166C363.081 365.537 364.561 364.056 366.176 364.5Z" fill="#929292"/>
<path d="M360.12 379.904C359.716 379.904 359.313 379.904 359.044 380.052C358.64 380.348 358.505 380.792 358.371 381.237C358.236 382.125 358.102 382.866 358.102 383.754C358.102 384.199 358.102 384.643 358.371 384.939C358.505 385.235 358.909 385.383 359.178 385.532C362.004 386.568 365.099 386.568 368.06 386.568C368.598 386.568 369.002 386.568 369.54 386.272C370.617 385.828 371.155 384.347 370.886 383.162C370.079 379.459 362.812 380.2 360.12 379.904Z" fill="black"/>
<path d="M350.566 406.267C349.22 408.044 348.817 410.562 348.951 412.784C349.086 415.153 349.893 417.227 350.97 419.3C351.374 420.041 351.777 420.781 352.45 421.226C352.988 421.67 353.796 421.67 354.469 421.818C356.353 421.966 358.371 422.114 360.121 421.374C361.736 420.485 362.947 418.856 363.754 417.079C365.907 412.191 365.638 406.119 363.081 401.527C362.678 400.787 362.139 400.046 361.467 399.75C358.371 397.973 352.316 403.897 350.566 406.267Z" fill="black"/>
<path d="M357.428 385.828C356.083 386.42 355.006 387.901 355.141 389.382C355.275 390.123 355.544 390.715 355.544 391.456C355.544 392.493 354.737 393.529 354.872 394.566C355.006 395.159 355.41 395.603 355.544 396.047C355.948 397.084 355.544 398.269 355.41 399.454C355.141 401.379 355.814 403.453 357.159 404.786C358.505 406.119 360.389 406.711 362.139 406.267C364.157 405.822 365.772 404.193 367.791 403.897C369.002 403.601 370.213 403.897 371.424 404.045C374.789 404.341 378.153 403.453 380.979 401.675C381.652 401.231 382.459 400.49 382.459 399.602C382.459 398.565 381.383 397.973 380.441 397.676C375.327 395.751 370.078 394.566 364.695 394.27C364.292 393.678 364.561 392.789 365.234 392.493C365.772 392.196 366.445 392.196 367.118 392.345C369.675 392.789 372.097 393.085 374.654 393.529C376.134 393.826 378.018 393.678 378.557 392.196C378.96 391.16 378.422 390.123 377.615 389.531C376.807 388.938 375.865 388.642 374.923 388.494C371.693 387.901 368.464 387.161 365.234 386.568C363.888 386.272 362.542 385.828 361.331 385.532C359.985 385.235 358.774 385.828 357.428 385.828Z" fill="black"/>
<path d="M451.496 377.238C450.689 377.386 449.881 377.682 449.478 378.422C448.535 379.755 449.343 381.681 450.689 382.421C452.034 383.162 453.515 383.014 454.995 382.718C456.341 382.569 457.821 382.273 459.167 381.977C460.378 381.533 461.724 380.792 461.724 379.311C461.858 374.572 453.515 376.645 451.496 377.238Z" fill="#FFF10D"/>
<path d="M446.382 385.976C445.44 386.124 444.364 386.124 443.556 386.716C442.749 387.161 442.076 388.346 442.211 389.382C442.345 390.271 443.018 390.863 443.825 391.16C444.633 391.456 445.44 391.456 446.248 391.456C450.15 391.308 454.188 391.011 458.09 390.419C458.763 390.271 459.571 390.123 460.109 389.53C461.858 387.161 458.09 385.532 456.475 385.383C453.246 384.791 449.612 385.68 446.382 385.976Z" fill="#FFF10D"/>
<path d="M439.519 393.381C438.308 393.381 436.827 393.826 436.424 395.159C436.154 396.492 437.366 397.528 438.577 397.973C439.923 398.417 441.403 398.565 442.883 398.565C447.19 398.713 451.496 398.565 455.802 398.417C456.61 398.417 457.552 398.269 458.359 397.973C459.167 397.677 459.84 396.936 460.109 395.899C460.916 391.012 453.649 392.641 451.496 392.789C447.459 392.937 443.556 393.233 439.519 393.381Z" fill="#FFF10D"/>
<path d="M456.071 413.08C455.667 415.598 455.264 418.263 455.667 420.781C456.071 423.299 457.551 425.817 459.704 426.558C461.454 427.15 463.473 426.706 465.222 425.817C467.779 424.632 470.201 422.855 471.278 420.041C472.354 417.079 471.412 413.672 470.067 410.858C468.721 408.044 466.702 405.526 465.491 402.712C464.818 400.935 464.28 399.009 463.069 397.676C461.858 396.195 459.839 395.455 458.359 396.64C457.417 397.528 457.148 399.009 457.148 400.342C457.282 404.786 456.744 408.636 456.071 413.08Z" fill="#FFF10D"/>
<path d="M446.922 400.342C445.711 400.491 444.096 400.787 443.692 402.12C443.423 403.157 444.096 404.193 444.903 404.638C445.711 405.082 446.653 405.23 447.595 405.23C450.555 405.23 453.651 405.082 456.477 404.489C457.284 404.341 458.226 404.045 458.63 403.305C459.033 402.416 458.63 401.379 457.957 400.787C455.4 398.861 449.748 400.194 446.922 400.342Z" fill="#FFF10D"/>
<path d="M449.881 442.701C449.881 442.701 455.533 455.587 448.266 458.253C440.999 460.919 429.157 450.551 429.157 450.551C429.157 450.551 412.604 425.225 413.411 424.78C414.219 424.336 421.351 422.559 421.351 422.559L435.078 426.706C434.943 426.558 445.44 424.78 449.881 442.701Z" fill="#FFF10D"/>
<path d="M389.323 432.186C389.323 432.186 384.882 441.517 385.69 462.992C386.497 485.949 393.63 554.375 393.63 554.375L413.008 559.114C413.008 559.114 424.044 457.808 424.044 444.331C423.909 430.705 415.7 403.601 389.323 432.186Z" fill="#FFF10D"/>
<path d="M460.917 387.901C461.993 389.086 462.801 390.567 463.339 392.197C464.819 396.196 465.762 400.343 466.165 404.638C466.3 405.823 466.3 407.156 465.896 408.192C465.089 410.414 462.532 411.599 460.379 411.006C458.225 410.414 456.611 408.488 455.803 406.267C454.996 404.045 454.861 401.527 454.996 399.158C455.13 396.788 455.399 394.27 455.265 391.9C455.265 390.864 455.13 389.827 455.399 388.938C455.938 385.68 459.167 386.124 460.917 387.901Z" fill="#FFF10D"/>
<path d="M374.116 409.229C374.116 409.229 356.622 422.262 356.622 429.964C356.622 437.666 355.411 459.141 364.023 461.215C372.905 463.288 385.959 462.252 385.959 462.252C385.959 462.252 384.479 444.627 391.207 440.48C397.802 436.333 403.992 433.667 403.992 433.667L446.517 505.055L459.84 496.168C459.84 496.168 447.863 450.847 444.633 441.516C441.269 432.186 430.907 402.12 423.371 399.454C415.7 396.788 403.454 389.086 374.116 409.229Z" fill="black"/>
<path d="M455.937 385.976C456.475 387.457 457.821 388.642 459.301 388.938C459.57 388.938 459.839 389.086 460.108 388.938C460.647 388.642 460.781 387.753 460.916 387.161C461.05 384.643 461.185 381.977 461.185 379.459C461.185 379.311 461.185 379.015 461.185 378.867C461.05 378.274 460.243 377.978 459.705 378.126C458.494 378.126 455.668 379.015 455.264 380.644C455.129 381.237 455.533 382.273 455.533 382.866C455.533 383.754 455.533 384.939 455.937 385.976Z" fill="#FFF10D"/>
<path d="M415.296 322.586C429.12 322.586 440.327 305.809 440.327 285.115C440.327 264.42 429.12 247.643 415.296 247.643C401.472 247.643 390.266 264.42 390.266 285.115C390.266 305.809 401.472 322.586 415.296 322.586Z" fill="black"/>
<path d="M447.592 505.351C448.13 503.129 450.822 502.685 458.223 498.834C469.662 493.058 470.873 490.244 477.063 489.504C478.14 489.355 485.945 488.615 487.426 491.577C490.386 497.205 470.2 516.903 456.608 514.237C451.494 513.349 446.65 508.757 447.592 505.351Z" fill="black"/>
<path d="M395.916 559.707C398.742 558.077 402.914 559.559 405.336 561.928C406.817 563.409 408.028 565.483 408.701 570.815C409.643 577.776 409.912 592.883 403.99 594.808C403.048 595.104 400.222 595.697 395.243 590.809C394.032 587.403 392.686 582.219 392.552 575.702C392.283 569.186 392.013 561.928 395.916 559.707Z" fill="black"/>
<path d="M127.979 205.284H124.346V257.418H127.979V205.284Z" fill="#D3D1D2"/>
<path fill-rule="evenodd" clip-rule="evenodd" d="M99.9891 161H154.761L171.313 221.28H83.4365L99.9891 161Z" fill="#929292"/>
<path d="M127.98 257.418H55.1758V261.714H127.98V257.418Z" fill="#D3D1D2"/>
<path d="M58.1364 260.529H55.1758V312.663H58.1364V260.529Z" fill="#D3D1D2"/>
<path d="M61.0969 311.922H52.3496V541.193H61.0969V311.922Z" fill="#929292"/>
<path d="M113.311 388.494H0V398.417H113.311V388.494Z" fill="#D3D1D2"/>
<path d="M104.295 552.301H8.88184V562.225H104.295V552.301Z" fill="#929292"/>
<path d="M92.452 546.821H20.9932V552.301H92.452V546.821Z" fill="#929292"/>
<path d="M78.9958 541.193H34.1826V546.673H78.9958V541.193Z" fill="#969899"/>
<path fill-rule="evenodd" clip-rule="evenodd" d="M83.7059 221.28H171.448L189.481 286.892L249.77 506.536H5.38379L66.7496 282.893L83.7059 221.28Z" fill="#FFF10D" fill-opacity="0.13"/>
<path d="M415.834 323.03C429.695 323.03 440.865 306.146 440.865 285.263C440.865 264.379 429.695 247.495 415.834 247.495" fill="#FFF10D"/>
<rect x="346" width="136" height="213" fill="#E9E8E8"/>
<rect x="202" y="77" width="136" height="213" fill="#E9E8E8"/>
<rect x="490" y="77" width="136" height="213" fill="#E9E8E8"/>
</svg>
