<svg width="1075" height="570" viewBox="0 0 1075 570" fill="none" xmlns="http://www.w3.org/2000/svg">
<path d="M239.296 68.2747C238.576 71.2746 234.794 80.7746 225.796 80.7746C210.809 80.7746 215.796 59.2744 215.796 59.2744C215.796 59.2744 220.296 39 225.796 39C231.297 39 240.697 62.4403 239.296 68.2747Z" fill="#0193D2"/>
<path d="M1072.78 288.945C1072.78 320.628 1058.18 353.943 1032.59 386.164C1007.01 418.373 970.524 449.379 926.971 476.409C839.856 530.473 724.672 568.5 612.461 568.5C499.981 568.5 346.97 560.951 222.116 537.355C159.675 525.554 104.387 509.76 64.7469 488.952C25.0433 468.111 1.5 442.505 1.5 411.236C1.5 395.765 11.2789 378.26 29.365 359.368C47.4046 340.524 73.4827 320.533 105.565 300.103C169.721 259.247 257.655 216.775 352.672 178.298C447.68 139.825 549.715 105.368 642.045 80.5314C734.408 55.6862 816.946 40.5 873.004 40.5C929.151 40.5 969.624 48.0742 998.773 61.3402C1027.88 74.5848 1045.74 93.5234 1056.68 116.409C1067.64 139.346 1071.69 166.334 1072.98 195.72C1073.81 214.739 1073.48 234.649 1073.15 255.061C1072.96 266.227 1072.78 277.543 1072.78 288.945Z" stroke="#C4C4C4" stroke-opacity="0.2" stroke-width="3"/>
<path d="M624.732 419.358C624.732 428.8 537.073 440 453.753 440C370.433 440 227 437.782 227 428.339C227 418.897 466.895 401 550.215 401C633.534 401 624.732 409.915 624.732 419.358Z" fill="#D7D7D7" fill-opacity="0.7"/>
<path d="M461.918 187.298C466.26 209.022 471.841 215.849 466.88 225.78C465.64 228.263 463.159 231.366 448.274 240.056C448.274 240.056 420.986 255.573 378.192 263.642C375.712 264.263 371.37 264.884 367.649 263.021C364.548 261.159 362.687 257.435 359.587 255.573C354.005 251.228 345.322 253.091 341.601 258.677C337.88 264.263 339.74 273.573 345.942 277.297C352.144 281.642 360.827 279.78 363.928 279.159C405.481 269.849 440.212 290.332 483.625 267.366C499.13 258.677 506.572 249.987 510.293 243.78C515.875 234.47 517.736 226.401 518.356 222.056C523.317 197.849 514.015 177.987 512.154 174.263C509.673 168.677 499.13 148.195 478.043 141.367C473.082 139.505 467.5 138.264 463.779 140.746C453.856 146.953 459.438 173.643 461.918 187.298Z" fill="#FFF10D"/>
<path d="M478.044 350.535L175.39 395.845C175.39 395.845 171.048 408.879 174.149 409.5C371.991 425.017 553.087 412.603 550.606 410.121C548.125 407.638 478.044 350.535 478.044 350.535Z" fill="black"/>
<path d="M163.606 377.224C161.745 372.88 159.885 367.914 158.024 362.949C156.784 359.224 154.303 354.88 150.582 354.88C148.101 354.88 146.24 357.362 145.62 359.224C145 361.087 145 364.19 145 366.673C146.861 381.569 149.962 395.845 156.163 409.5C156.163 410.121 156.784 410.741 157.404 411.362C158.644 411.983 159.885 411.983 161.745 411.983C169.188 410.121 177.25 410.121 175.389 400.19C173.529 392.742 166.707 384.673 163.606 377.224Z" fill="#FFF10D"/>
<path d="M532.001 348.676C474.323 295.297 377.572 212.746 347.183 234.47C343.462 236.953 340.361 241.918 339.121 248.746C331.058 308.332 322.996 367.917 315.553 427.503L324.856 438.676L374.472 313.297C440.832 375.366 518.356 439.917 540.063 423.779C541.924 422.538 543.164 420.055 544.404 417.572L532.001 348.676Z" fill="#FFF10D"/>
<path d="M272.76 452.328C271.519 452.948 270.279 453.569 270.279 455.431C270.279 456.672 270.899 457.914 272.14 458.535C273.38 459.155 274.62 459.155 276.481 458.535C291.986 457.293 306.87 453.569 321.135 448.603C322.995 447.983 325.476 447.362 326.096 445.5C328.577 441.776 325.476 433.707 321.755 432.466C318.034 431.224 310.592 434.948 307.491 436.19C295.087 441.155 283.923 446.121 272.76 452.328Z" fill="black"/>
<path d="M472.653 101.456L462.06 88.4761L447.17 100.648L457.763 113.628L472.653 101.456Z" fill="black"/>
<path d="M456.908 113.762L446.315 100.782L440.551 105.494L451.144 118.473L456.908 113.762Z" fill="#FFF10D"/>
<path d="M452.616 113.433C456.337 122.743 460.678 131.433 464.399 140.743C469.981 149.433 474.943 158.743 480.524 167.433C499.75 215.225 510.914 266.122 512.774 317.018C512.774 324.466 511.534 334.397 504.092 335.639C510.914 340.604 523.938 352.397 532 371.638C541.924 394.604 539.443 415.707 537.582 423.776C556.808 416.948 580.996 404.535 587.198 382.19C590.299 371.638 587.818 364.19 585.957 348.052C583.476 315.777 590.299 297.156 592.779 278.535C592.779 278.535 603.323 206.536 478.664 97.295C473.082 92.9502 468.121 89.8468 465.02 95.433C464.399 96.6743 465.64 100.398 465.02 102.881C463.159 107.226 456.337 111.571 452.616 113.433Z" fill="#FFF10D"/>
<path d="M420.365 179.846C419.125 182.329 416.024 188.535 409.822 193.501C403.62 197.846 395.558 197.846 388.736 195.984C381.913 194.122 375.711 189.777 370.13 185.432C358.346 176.122 347.803 165.57 337.259 155.018C327.336 145.087 317.413 134.536 306.87 124.605C304.389 122.122 301.908 119.019 299.428 115.915C295.086 109.088 295.086 100.398 289.505 94.1911C287.644 91.7084 284.543 89.8463 281.442 90.467C279.582 90.467 278.341 91.7084 276.481 92.329C269.038 96.6738 260.356 104.122 263.457 112.191C266.558 120.26 278.341 120.26 285.783 125.225C288.884 127.708 291.365 130.812 293.846 134.536C316.173 166.811 343.461 195.363 375.091 218.328C386.875 227.018 393.077 229.501 402.38 230.742C434.63 235.708 462.538 207.777 479.284 190.397C495.409 173.639 499.13 163.087 499.75 154.398C500.37 150.053 500.99 138.26 492.928 129.57C487.346 123.984 478.043 120.881 469.361 122.122C443.933 125.225 422.226 175.501 420.365 179.846Z" fill="black"/>
<path d="M494.169 208.398C497.89 220.191 500.371 230.122 502.231 237.57C511.534 274.811 511.534 295.294 511.534 300.88C511.534 303.983 513.395 308.328 510.914 312.052C507.813 317.018 501.611 318.259 502.231 321.363C502.231 323.225 504.712 323.225 508.433 325.707C515.255 330.052 515.875 334.397 518.356 334.397C521.457 334.397 524.558 325.707 525.799 311.432C529.52 268.604 509.674 216.467 504.712 204.053C499.13 189.156 466.88 106.605 452.616 109.088C451.375 109.088 446.414 110.329 445.794 112.812C445.173 114.674 447.654 115.295 450.135 119.639C451.375 122.743 451.375 125.846 453.856 126.467C454.476 126.467 455.097 126.467 455.717 126.467C458.198 126.467 466.88 141.984 490.448 195.984" fill="black"/>
<path d="M457.819 84.7897C473.964 60.1322 473.35 31.157 456.448 20.0718C439.545 8.98646 412.754 19.9888 396.609 44.6463C380.463 69.3037 381.077 98.2789 397.98 109.364C414.883 120.449 441.673 109.447 457.819 84.7897Z" fill="#FFF10D"/>
<path d="M458.817 23.4363C474.942 35.2293 473.702 64.4016 456.337 87.9877C438.971 111.574 411.683 120.884 395.558 109.091C393.697 107.85 391.837 105.988 390.596 104.126" fill="black"/>
<path d="M446.414 111.571L456.957 133.295" stroke="black" stroke-width="0.5" stroke-miterlimit="10"/>
<path d="M292.606 104.122C291.986 101.639 291.986 98.5359 292.606 96.0531C293.226 93.5704 292.606 90.4669 291.366 87.9842C290.745 86.7428 289.505 85.5015 288.265 84.2601C285.164 81.1566 283.303 76.8118 283.303 72.467C283.303 71.8464 283.303 71.2257 282.683 71.2257C282.063 70.605 280.822 70.605 280.202 71.8464C279.582 72.467 278.962 73.7084 278.962 74.3291C278.342 76.8118 278.342 79.2946 278.962 81.1566C279.582 84.2601 281.442 86.1221 281.442 89.2256C269.659 86.1221 264.077 72.467 252.293 68.7429C251.673 68.7429 250.433 68.7429 250.433 69.3636V69.9843C251.053 72.467 252.914 74.3291 254.774 76.1912C257.255 78.6739 259.736 80.536 262.216 83.0187C263.457 84.2601 264.697 85.5015 264.077 87.3635C261.596 86.7428 259.736 84.2601 257.875 82.398C254.774 78.6739 250.433 76.1912 246.091 73.7084C245.471 73.0877 244.851 73.0877 243.611 73.0877C242.37 73.0877 241.75 74.9498 242.37 75.5705C242.37 76.8118 243.611 77.4325 244.231 78.0532C249.192 82.398 254.154 87.3635 259.116 91.7083C258.495 92.329 257.875 92.9497 257.255 92.9497C256.635 92.9497 256.015 92.329 255.394 91.7083C251.673 89.2256 248.572 86.1221 244.851 83.6394C243.611 82.398 242.37 81.7773 240.51 81.1566H239.89C239.269 81.1566 239.269 82.398 238.649 83.0187C238.649 85.5015 240.51 86.7428 242.37 88.6049C246.712 92.329 251.673 96.0531 256.015 99.7772C256.635 100.398 256.635 101.019 256.015 101.639H255.394C252.293 100.398 249.813 98.5359 247.332 96.6738C245.471 95.4324 242.991 93.5704 240.51 93.5704H239.89C239.269 94.1911 239.89 94.8118 239.89 94.8118C241.13 96.6738 242.991 98.5359 244.851 99.7772C247.952 102.26 251.053 103.501 254.154 106.605C256.015 108.467 257.255 110.329 259.116 112.191C266.558 119.639 277.721 122.122 288.265 124.605C288.885 124.605 290.125 125.225 290.745 124.605C291.366 124.605 291.986 123.984 292.606 123.363C295.707 120.881 298.188 116.536 298.808 112.812C299.428 110.329 299.428 109.708 296.947 108.467C293.846 107.846 293.226 105.984 292.606 104.122Z" fill="black"/>
</svg>
