<svg width="489" height="342" viewBox="0 0 489 342" fill="none" xmlns="http://www.w3.org/2000/svg">
<path d="M305.242 95.5973C305.383 96.927 305.111 98.1659 304.929 98.9919C304.748 99.8178 304.385 101.47 305.03 102.477C305.353 102.981 305.585 103.898 305.908 104.402C306.785 106.326 307.249 108.159 307.209 110.315C307.118 110.728 307.118 110.728 307.441 111.232C307.764 111.736 308.177 111.826 308.681 111.504C309.185 111.182 309.276 110.769 309.367 110.356C309.548 109.53 309.82 108.291 309.588 107.375C309.447 106.045 308.892 104.624 309.164 103.385C313.762 106.127 315.386 112.544 319.893 115.699C320.307 115.79 320.72 115.881 320.72 115.881L320.811 115.468C320.67 114.138 320.024 113.13 319.379 112.123C318.32 111.024 317.766 109.604 316.707 108.505C316.384 108.002 315.739 106.994 315.92 106.168C317.07 106.853 317.715 107.861 317.856 109.191C319.147 111.206 320.529 112.808 322.001 113.997C322.414 114.088 322.323 114.501 322.737 114.592C323.15 114.683 323.745 113.948 323.422 113.444C323.513 113.031 323.19 112.527 322.868 112.023C321.254 109.504 319.227 106.895 317.614 104.376C317.705 103.963 318.118 104.053 318.531 104.144C318.945 104.235 318.854 104.648 319.268 104.739C320.649 106.341 321.617 107.852 322.999 109.455C323.321 109.958 324.057 110.553 324.793 111.148L325.207 111.238C325.62 111.329 325.711 110.916 325.802 110.503C325.983 109.677 325.338 108.67 324.692 107.662C322.988 105.556 321.284 103.45 319.993 101.435C319.58 101.344 319.671 100.931 320.175 100.609C320.175 100.609 320.175 100.609 320.588 100.7C321.647 101.798 322.796 102.484 323.855 103.582C324.501 104.59 325.559 105.688 326.477 105.457L326.89 105.548L326.981 105.135C326.336 104.127 326.104 103.21 325.458 102.203C324.49 100.691 322.927 99.9151 321.959 98.4038C321.314 97.3962 320.668 96.3886 320.023 95.3811C317.442 91.3508 313.166 89.113 308.891 86.8751C308.478 86.7843 308.064 86.6935 308.064 86.6935C307.651 86.6027 307.56 87.0157 307.147 86.9249C305.634 87.8913 304.535 88.9486 304.172 90.6005C303.9 91.8395 303.9 91.8395 304.636 92.4341C304.778 93.7638 305.01 94.6805 305.242 95.5973Z" fill="black"/>
<path d="M39.2792 138.473C34.3184 137.384 29.3575 136.294 24.3967 135.204C23.439 137.591 33.2194 138.441 37.0813 140.588C34.0967 140.365 32.3524 140.415 29.872 139.87C27.3916 139.325 25.3246 138.871 23.7215 140.251C23.4493 141.49 33.6432 142.43 39.9349 143.379C41.1752 143.652 42.5061 143.511 43.2422 144.106C44.3917 144.791 45.1278 145.386 45.269 146.715C44.9969 147.954 43.8979 149.012 42.1536 149.061C40.8227 149.202 39.169 148.839 37.9288 148.566C37.102 148.385 36.1845 148.616 36.0938 149.029C36.0031 149.442 36.8299 149.624 37.2433 149.714C46.5701 152.629 56.7134 151.827 64.0938 147.82C64.5979 147.498 65.102 147.176 65.1928 146.763C65.7876 146.028 65.1422 145.02 64.4061 144.426C61.9153 139.982 58.5679 141.412 53.4256 141.148C48.3741 140.471 43.8266 139.472 39.2792 138.473Z" fill="white"/>
<path d="M62.1681 148.696C78.4217 149.669 180.4 156.919 185.986 151.219C187.68 149.427 188.224 146.949 188.224 146.949C189.544 142.91 187.376 138.97 186.912 137.137C185.158 133.288 182.213 130.91 180.328 129.63C140.813 133.937 101.803 137.922 62.2886 142.229" fill="black"/>
<path d="M310.724 189.009C311.006 191.669 308.653 273.403 308.653 273.403L427.508 257.087L429.808 276.207L422.901 268.196L309.33 303.854C303.23 305.978 287.774 311.24 281.613 307.723C277.015 304.981 275.925 292.187 275.411 288.611C271.234 254.36 267.057 220.11 262.88 185.859C278.72 186.741 294.47 188.036 310.724 189.009Z" fill="white"/>
<path d="M304.35 174.622C304.35 174.622 347.681 241.716 347.449 240.799C347.217 239.883 411.702 165.303 412.438 165.898C413.265 166.079 429.731 177.921 428.491 177.649C427.664 177.467 417.056 176.436 417.056 176.436L356.637 277.883C356.637 277.883 351.697 284.59 348.945 285.284C344.357 286.44 338.791 282.187 335.756 280.222C309.227 264.871 258.707 204.856 258.707 204.856L304.35 174.622Z" fill="black"/>
<path d="M429.032 277.768C431.472 280.468 433.822 283.582 436.171 286.695C437.785 289.214 440.639 292.006 443.482 290.899C444.903 290.345 446.184 288.462 446.133 286.719C446.083 284.976 445.619 283.143 444.651 281.632C440.032 271.093 434.405 261.199 426.762 252.594C426.439 252.09 426.026 251.999 425.703 251.495C424.553 250.81 423.545 251.454 422.537 252.099C417.082 255.229 411.486 257.031 415.177 263.902C417.991 268.849 424.797 273.374 429.032 277.768Z" fill="black"/>
<path d="M431.445 183.926C434.894 185.982 438.342 188.038 442.113 190.598C444.735 192.473 448.274 194.116 450.886 192.092C452.489 190.713 452.529 188.557 452.065 186.724C451.601 184.89 450.129 183.701 448.747 182.099C440.277 173.312 431.212 165.26 420.362 159.413C419.949 159.322 419.213 158.728 418.799 158.637C417.559 158.365 416.874 159.513 415.865 160.157C411.792 164.89 406.479 169.351 412.69 174.611C417.752 179.186 426.02 181.002 431.445 183.926Z" fill="black"/>
<path d="M218.036 101.982C221.06 100.049 226.243 98.1574 235.751 100.246C241.69 106.745 248.043 113.336 253.982 119.835C259.599 125.831 262.271 129.448 265.498 134.486C276.469 151.615 273.183 158.685 281.693 165.316C287.259 169.569 289.457 167.455 303.473 172.698C313.122 176.116 320.523 179.906 325.444 183.152C321.099 189.124 286.609 235.66 271.163 244.821C265.708 247.952 263.227 247.407 261.987 247.134C258.357 245.904 256.875 240.817 253.95 228.486C249.865 211.571 250.097 212.488 249.542 211.068C244.55 198.283 231.412 194.964 220.653 188.704C209.894 182.445 196.826 170.916 186.661 146.173C185.693 144.661 184.079 142.142 183.978 138.657C183.746 137.74 183.696 135.997 184.24 133.52C184.512 132.281 185.561 129.481 189.362 125.987C193.072 122.905 194.403 122.765 199.948 119.221C201.461 118.255 204.899 116.413 207.782 113.15C213.962 106.715 214.416 104.65 218.036 101.982Z" fill="black"/>
<path d="M310.867 87.7421C301.933 77.1216 295.247 66.1292 285.214 56.566C280.243 51.5779 274.173 47.6471 267.377 47.02C258.423 46.352 250.771 51.5974 244.177 57.9411C232.683 68.8363 224.457 82.6136 217.47 96.6633C216.785 97.8114 215.827 100.198 215.102 103.502C214.285 107.219 213.287 111.762 215.365 116.114C217.351 120.879 222.363 123.712 227.323 124.802C233.615 125.751 238.979 123.033 242.276 119.861C246.258 115.541 246.702 109.578 247.105 105.77C249.17 88.4752 261.42 68.2222 272.894 67.2795C279.962 66.6676 286.728 73.3486 295.198 82.1356C299.433 86.5291 302.428 90.6502 304.778 93.7637" fill="white"/>
<path d="M198.94 119.866C230.068 155.708 261.287 191.137 292.416 226.979C282.616 236.082 272.725 245.597 262.926 254.7C259.658 251.818 255.423 247.424 251.642 240.966C250.351 238.951 247.86 234.508 246.146 228.503C242.626 216.908 245.691 212.819 241.405 206.683C239.146 203.156 236.757 202.198 230.182 198.59C221.309 193.61 212.113 188.127 204.843 181.768C196.514 174.311 192.178 166.432 185.441 153.697C185.209 152.78 181.983 147.742 180.631 140.086C179.652 134.676 178.957 131.926 180.328 129.63C181.608 127.747 184.542 126.227 190.823 123.277C192.749 122.402 194.675 121.526 196.097 120.973" fill="white"/>
<path d="M191.902 76.3184C177.57 63.2482 159.311 59.9218 151.119 68.8887C142.926 77.8555 147.903 95.72 162.235 108.79C176.567 121.86 194.826 125.187 203.019 116.22C211.211 107.253 206.234 89.3885 191.902 76.3184Z" fill="black"/>
<path d="M204.253 115.405C212.309 106.352 207.579 88.4298 193.038 75.712C178.589 62.5812 160.217 59.4115 152.253 68.0515" fill="white"/>
</svg>
